<mxfile host="app.diagrams.net" agent="Mozilla/5.0 (Windows NT 10.0; Win64; x64) AppleWebKit/537.36 (KHTML, like Gecko) Chrome/136.0.0.0 Safari/537.36" version="27.0.6">
  <diagram id="C5RBs43oDa-KdzZeNtuy" name="Page-1">
    <mxGraphModel dx="6651" dy="2223" grid="1" gridSize="10" guides="1" tooltips="1" connect="1" arrows="1" fold="1" page="1" pageScale="1" pageWidth="827" pageHeight="1169" math="0" shadow="0">
      <root>
        <mxCell id="WIyWlLk6GJQsqaUBKTNV-0" />
        <mxCell id="WIyWlLk6GJQsqaUBKTNV-1" parent="WIyWlLk6GJQsqaUBKTNV-0" />
        <mxCell id="K6J4-owUTtvEKUNY4Ti0-61" style="edgeStyle=orthogonalEdgeStyle;rounded=0;orthogonalLoop=1;jettySize=auto;html=1;entryX=0.5;entryY=0;entryDx=0;entryDy=0;dashed=1;endArrow=open;endFill=0;startArrow=open;startFill=0;" parent="WIyWlLk6GJQsqaUBKTNV-1" source="K6J4-owUTtvEKUNY4Ti0-4" target="K6J4-owUTtvEKUNY4Ti0-9" edge="1">
          <mxGeometry relative="1" as="geometry">
            <Array as="points">
              <mxPoint x="-605" y="200" />
            </Array>
          </mxGeometry>
        </mxCell>
        <mxCell id="K6J4-owUTtvEKUNY4Ti0-4" value="&amp;lt;&amp;lt;form&amp;gt;&amp;gt;&lt;div&gt;frmProyecto&lt;/div&gt;" style="swimlane;fontStyle=1;align=center;verticalAlign=top;childLayout=stackLayout;horizontal=1;startSize=40;horizontalStack=0;resizeParent=1;resizeParentMax=0;resizeLast=0;collapsible=1;marginBottom=0;whiteSpace=wrap;html=1;" parent="WIyWlLk6GJQsqaUBKTNV-1" vertex="1">
          <mxGeometry x="280" y="20" width="240" height="210" as="geometry" />
        </mxCell>
        <mxCell id="K6J4-owUTtvEKUNY4Ti0-5" value="- contenedor: JPanel&lt;div&gt;+MENU_PRINCIPAL :String&lt;/div&gt;&lt;div&gt;+MENU_ALUMNO:String&lt;/div&gt;&lt;div&gt;+MENU_CURSOS:String&lt;/div&gt;&lt;div&gt;+MENU_REPORTES:String&lt;/div&gt;&lt;div&gt;+MENU_CALIFICACIONES:String&lt;/div&gt;&lt;div&gt;+MENU_INSCRIPCIONES:String&lt;/div&gt;&lt;div&gt;&lt;br&gt;&lt;/div&gt;&lt;div&gt;&lt;br&gt;&lt;/div&gt;" style="text;strokeColor=none;fillColor=none;align=left;verticalAlign=top;spacingLeft=4;spacingRight=4;overflow=hidden;rotatable=0;points=[[0,0.5],[1,0.5]];portConstraint=eastwest;whiteSpace=wrap;html=1;" parent="K6J4-owUTtvEKUNY4Ti0-4" vertex="1">
          <mxGeometry y="40" width="240" height="120" as="geometry" />
        </mxCell>
        <mxCell id="K6J4-owUTtvEKUNY4Ti0-6" value="" style="line;strokeWidth=1;fillColor=none;align=left;verticalAlign=middle;spacingTop=-1;spacingLeft=3;spacingRight=3;rotatable=0;labelPosition=right;points=[];portConstraint=eastwest;strokeColor=inherit;" parent="K6J4-owUTtvEKUNY4Ti0-4" vertex="1">
          <mxGeometry y="160" width="240" height="8" as="geometry" />
        </mxCell>
        <mxCell id="K6J4-owUTtvEKUNY4Ti0-7" value="+frmProyecto()&lt;div&gt;+cambiarPanel(String nombrePanel):void&amp;nbsp;&lt;/div&gt;" style="text;strokeColor=none;fillColor=none;align=left;verticalAlign=top;spacingLeft=4;spacingRight=4;overflow=hidden;rotatable=0;points=[[0,0.5],[1,0.5]];portConstraint=eastwest;whiteSpace=wrap;html=1;" parent="K6J4-owUTtvEKUNY4Ti0-4" vertex="1">
          <mxGeometry y="168" width="240" height="42" as="geometry" />
        </mxCell>
        <mxCell id="K6J4-owUTtvEKUNY4Ti0-9" value="&amp;lt;&amp;lt;JPanel&amp;gt;&amp;gt;&lt;div&gt;menuAlumno&lt;/div&gt;" style="swimlane;fontStyle=1;align=center;verticalAlign=top;childLayout=stackLayout;horizontal=1;startSize=41;horizontalStack=0;resizeParent=1;resizeParentMax=0;resizeLast=0;collapsible=1;marginBottom=0;whiteSpace=wrap;html=1;" parent="WIyWlLk6GJQsqaUBKTNV-1" vertex="1">
          <mxGeometry x="-745" y="340" width="200" height="140" as="geometry" />
        </mxCell>
        <mxCell id="K6J4-owUTtvEKUNY4Ti0-10" value="- frame:frmProyecto&lt;div&gt;&lt;br&gt;&lt;/div&gt;" style="text;strokeColor=none;fillColor=none;align=left;verticalAlign=top;spacingLeft=4;spacingRight=4;overflow=hidden;rotatable=0;points=[[0,0.5],[1,0.5]];portConstraint=eastwest;whiteSpace=wrap;html=1;" parent="K6J4-owUTtvEKUNY4Ti0-9" vertex="1">
          <mxGeometry y="41" width="200" height="29" as="geometry" />
        </mxCell>
        <mxCell id="K6J4-owUTtvEKUNY4Ti0-11" value="" style="line;strokeWidth=1;fillColor=none;align=left;verticalAlign=middle;spacingTop=-1;spacingLeft=3;spacingRight=3;rotatable=0;labelPosition=right;points=[];portConstraint=eastwest;strokeColor=inherit;" parent="K6J4-owUTtvEKUNY4Ti0-9" vertex="1">
          <mxGeometry y="70" width="200" height="8" as="geometry" />
        </mxCell>
        <mxCell id="K6J4-owUTtvEKUNY4Ti0-12" value="+menuAlumno(frmProyecto frame)&lt;br&gt;&lt;div&gt;&lt;br&gt;&lt;/div&gt;" style="text;strokeColor=none;fillColor=none;align=left;verticalAlign=top;spacingLeft=4;spacingRight=4;overflow=hidden;rotatable=0;points=[[0,0.5],[1,0.5]];portConstraint=eastwest;whiteSpace=wrap;html=1;" parent="K6J4-owUTtvEKUNY4Ti0-9" vertex="1">
          <mxGeometry y="78" width="200" height="62" as="geometry" />
        </mxCell>
        <mxCell id="K6J4-owUTtvEKUNY4Ti0-13" value="&amp;lt;&amp;lt;JPanel&amp;gt;&amp;gt;&lt;div&gt;menuCalificaciones&lt;/div&gt;" style="swimlane;fontStyle=1;align=center;verticalAlign=top;childLayout=stackLayout;horizontal=1;startSize=41;horizontalStack=0;resizeParent=1;resizeParentMax=0;resizeLast=0;collapsible=1;marginBottom=0;whiteSpace=wrap;html=1;" parent="WIyWlLk6GJQsqaUBKTNV-1" vertex="1">
          <mxGeometry x="-15" y="340" width="200" height="140" as="geometry" />
        </mxCell>
        <mxCell id="K6J4-owUTtvEKUNY4Ti0-14" value="- frame:frmProyecto&lt;div&gt;&lt;br&gt;&lt;/div&gt;" style="text;strokeColor=none;fillColor=none;align=left;verticalAlign=top;spacingLeft=4;spacingRight=4;overflow=hidden;rotatable=0;points=[[0,0.5],[1,0.5]];portConstraint=eastwest;whiteSpace=wrap;html=1;" parent="K6J4-owUTtvEKUNY4Ti0-13" vertex="1">
          <mxGeometry y="41" width="200" height="29" as="geometry" />
        </mxCell>
        <mxCell id="K6J4-owUTtvEKUNY4Ti0-15" value="" style="line;strokeWidth=1;fillColor=none;align=left;verticalAlign=middle;spacingTop=-1;spacingLeft=3;spacingRight=3;rotatable=0;labelPosition=right;points=[];portConstraint=eastwest;strokeColor=inherit;" parent="K6J4-owUTtvEKUNY4Ti0-13" vertex="1">
          <mxGeometry y="70" width="200" height="8" as="geometry" />
        </mxCell>
        <mxCell id="K6J4-owUTtvEKUNY4Ti0-16" value="+menuCalificaciones(frmProyecto frame)&lt;br&gt;&lt;div&gt;&lt;br&gt;&lt;/div&gt;" style="text;strokeColor=none;fillColor=none;align=left;verticalAlign=top;spacingLeft=4;spacingRight=4;overflow=hidden;rotatable=0;points=[[0,0.5],[1,0.5]];portConstraint=eastwest;whiteSpace=wrap;html=1;" parent="K6J4-owUTtvEKUNY4Ti0-13" vertex="1">
          <mxGeometry y="78" width="200" height="62" as="geometry" />
        </mxCell>
        <mxCell id="K6J4-owUTtvEKUNY4Ti0-17" value="&amp;lt;&amp;lt;JPanel&amp;gt;&amp;gt;&lt;div&gt;menuCursos&lt;/div&gt;" style="swimlane;fontStyle=1;align=center;verticalAlign=top;childLayout=stackLayout;horizontal=1;startSize=41;horizontalStack=0;resizeParent=1;resizeParentMax=0;resizeLast=0;collapsible=1;marginBottom=0;whiteSpace=wrap;html=1;" parent="WIyWlLk6GJQsqaUBKTNV-1" vertex="1">
          <mxGeometry x="1555" y="340" width="200" height="140" as="geometry" />
        </mxCell>
        <mxCell id="K6J4-owUTtvEKUNY4Ti0-18" value="- frame:frmProyecto&lt;div&gt;&lt;br&gt;&lt;/div&gt;" style="text;strokeColor=none;fillColor=none;align=left;verticalAlign=top;spacingLeft=4;spacingRight=4;overflow=hidden;rotatable=0;points=[[0,0.5],[1,0.5]];portConstraint=eastwest;whiteSpace=wrap;html=1;" parent="K6J4-owUTtvEKUNY4Ti0-17" vertex="1">
          <mxGeometry y="41" width="200" height="29" as="geometry" />
        </mxCell>
        <mxCell id="K6J4-owUTtvEKUNY4Ti0-19" value="" style="line;strokeWidth=1;fillColor=none;align=left;verticalAlign=middle;spacingTop=-1;spacingLeft=3;spacingRight=3;rotatable=0;labelPosition=right;points=[];portConstraint=eastwest;strokeColor=inherit;" parent="K6J4-owUTtvEKUNY4Ti0-17" vertex="1">
          <mxGeometry y="70" width="200" height="8" as="geometry" />
        </mxCell>
        <mxCell id="K6J4-owUTtvEKUNY4Ti0-20" value="+menuCursos(frmProyecto frame)&lt;br&gt;&lt;div&gt;&lt;br&gt;&lt;/div&gt;" style="text;strokeColor=none;fillColor=none;align=left;verticalAlign=top;spacingLeft=4;spacingRight=4;overflow=hidden;rotatable=0;points=[[0,0.5],[1,0.5]];portConstraint=eastwest;whiteSpace=wrap;html=1;" parent="K6J4-owUTtvEKUNY4Ti0-17" vertex="1">
          <mxGeometry y="78" width="200" height="62" as="geometry" />
        </mxCell>
        <mxCell id="K6J4-owUTtvEKUNY4Ti0-72" style="edgeStyle=orthogonalEdgeStyle;rounded=0;orthogonalLoop=1;jettySize=auto;html=1;entryX=0.5;entryY=0;entryDx=0;entryDy=0;endArrow=open;endFill=0;dashed=1;" parent="WIyWlLk6GJQsqaUBKTNV-1" source="K6J4-owUTtvEKUNY4Ti0-21" target="K6J4-owUTtvEKUNY4Ti0-51" edge="1">
          <mxGeometry relative="1" as="geometry" />
        </mxCell>
        <mxCell id="K6J4-owUTtvEKUNY4Ti0-21" value="&amp;lt;&amp;lt;JPanel&amp;gt;&amp;gt;&lt;div&gt;menuInscripciones&lt;/div&gt;" style="swimlane;fontStyle=1;align=center;verticalAlign=top;childLayout=stackLayout;horizontal=1;startSize=41;horizontalStack=0;resizeParent=1;resizeParentMax=0;resizeLast=0;collapsible=1;marginBottom=0;whiteSpace=wrap;html=1;" parent="WIyWlLk6GJQsqaUBKTNV-1" vertex="1">
          <mxGeometry x="1065" y="340" width="230" height="140" as="geometry" />
        </mxCell>
        <mxCell id="K6J4-owUTtvEKUNY4Ti0-22" value="- frame:frmProyecto&lt;div&gt;&lt;br&gt;&lt;/div&gt;" style="text;strokeColor=none;fillColor=none;align=left;verticalAlign=top;spacingLeft=4;spacingRight=4;overflow=hidden;rotatable=0;points=[[0,0.5],[1,0.5]];portConstraint=eastwest;whiteSpace=wrap;html=1;" parent="K6J4-owUTtvEKUNY4Ti0-21" vertex="1">
          <mxGeometry y="41" width="230" height="29" as="geometry" />
        </mxCell>
        <mxCell id="K6J4-owUTtvEKUNY4Ti0-23" value="" style="line;strokeWidth=1;fillColor=none;align=left;verticalAlign=middle;spacingTop=-1;spacingLeft=3;spacingRight=3;rotatable=0;labelPosition=right;points=[];portConstraint=eastwest;strokeColor=inherit;" parent="K6J4-owUTtvEKUNY4Ti0-21" vertex="1">
          <mxGeometry y="70" width="230" height="8" as="geometry" />
        </mxCell>
        <mxCell id="K6J4-owUTtvEKUNY4Ti0-24" value="+menuInscripciones(frmProyecto frame)&lt;br&gt;&lt;div&gt;&lt;br&gt;&lt;/div&gt;" style="text;strokeColor=none;fillColor=none;align=left;verticalAlign=top;spacingLeft=4;spacingRight=4;overflow=hidden;rotatable=0;points=[[0,0.5],[1,0.5]];portConstraint=eastwest;whiteSpace=wrap;html=1;" parent="K6J4-owUTtvEKUNY4Ti0-21" vertex="1">
          <mxGeometry y="78" width="230" height="62" as="geometry" />
        </mxCell>
        <mxCell id="K6J4-owUTtvEKUNY4Ti0-25" value="&amp;lt;&amp;lt;JPanel&amp;gt;&amp;gt;&lt;div&gt;menuReportes&lt;/div&gt;" style="swimlane;fontStyle=1;align=center;verticalAlign=top;childLayout=stackLayout;horizontal=1;startSize=41;horizontalStack=0;resizeParent=1;resizeParentMax=0;resizeLast=0;collapsible=1;marginBottom=0;whiteSpace=wrap;html=1;" parent="WIyWlLk6GJQsqaUBKTNV-1" vertex="1">
          <mxGeometry x="507" y="240" width="220" height="140" as="geometry" />
        </mxCell>
        <mxCell id="K6J4-owUTtvEKUNY4Ti0-26" value="- frame:frmProyecto&lt;div&gt;&lt;br&gt;&lt;/div&gt;" style="text;strokeColor=none;fillColor=none;align=left;verticalAlign=top;spacingLeft=4;spacingRight=4;overflow=hidden;rotatable=0;points=[[0,0.5],[1,0.5]];portConstraint=eastwest;whiteSpace=wrap;html=1;" parent="K6J4-owUTtvEKUNY4Ti0-25" vertex="1">
          <mxGeometry y="41" width="220" height="29" as="geometry" />
        </mxCell>
        <mxCell id="K6J4-owUTtvEKUNY4Ti0-27" value="" style="line;strokeWidth=1;fillColor=none;align=left;verticalAlign=middle;spacingTop=-1;spacingLeft=3;spacingRight=3;rotatable=0;labelPosition=right;points=[];portConstraint=eastwest;strokeColor=inherit;" parent="K6J4-owUTtvEKUNY4Ti0-25" vertex="1">
          <mxGeometry y="70" width="220" height="8" as="geometry" />
        </mxCell>
        <mxCell id="K6J4-owUTtvEKUNY4Ti0-28" value="+menuReportes(frmProyecto frame)&lt;br&gt;&lt;div&gt;&lt;br&gt;&lt;/div&gt;" style="text;strokeColor=none;fillColor=none;align=left;verticalAlign=top;spacingLeft=4;spacingRight=4;overflow=hidden;rotatable=0;points=[[0,0.5],[1,0.5]];portConstraint=eastwest;whiteSpace=wrap;html=1;" parent="K6J4-owUTtvEKUNY4Ti0-25" vertex="1">
          <mxGeometry y="78" width="220" height="62" as="geometry" />
        </mxCell>
        <mxCell id="K6J4-owUTtvEKUNY4Ti0-29" value="&amp;lt;&amp;lt;JPanel&amp;gt;&amp;gt;&lt;div&gt;menuPrincipal&lt;/div&gt;" style="swimlane;fontStyle=1;align=center;verticalAlign=top;childLayout=stackLayout;horizontal=1;startSize=41;horizontalStack=0;resizeParent=1;resizeParentMax=0;resizeLast=0;collapsible=1;marginBottom=0;whiteSpace=wrap;html=1;" parent="WIyWlLk6GJQsqaUBKTNV-1" vertex="1">
          <mxGeometry x="-413" y="340" width="200" height="140" as="geometry" />
        </mxCell>
        <mxCell id="K6J4-owUTtvEKUNY4Ti0-30" value="- frame:frmProyecto&lt;div&gt;&lt;br&gt;&lt;/div&gt;" style="text;strokeColor=none;fillColor=none;align=left;verticalAlign=top;spacingLeft=4;spacingRight=4;overflow=hidden;rotatable=0;points=[[0,0.5],[1,0.5]];portConstraint=eastwest;whiteSpace=wrap;html=1;" parent="K6J4-owUTtvEKUNY4Ti0-29" vertex="1">
          <mxGeometry y="41" width="200" height="29" as="geometry" />
        </mxCell>
        <mxCell id="K6J4-owUTtvEKUNY4Ti0-31" value="" style="line;strokeWidth=1;fillColor=none;align=left;verticalAlign=middle;spacingTop=-1;spacingLeft=3;spacingRight=3;rotatable=0;labelPosition=right;points=[];portConstraint=eastwest;strokeColor=inherit;" parent="K6J4-owUTtvEKUNY4Ti0-29" vertex="1">
          <mxGeometry y="70" width="200" height="8" as="geometry" />
        </mxCell>
        <mxCell id="K6J4-owUTtvEKUNY4Ti0-32" value="+menuPrincipal(frmProyecto frame)&lt;div&gt;&lt;br&gt;&lt;div&gt;&lt;br&gt;&lt;/div&gt;&lt;/div&gt;" style="text;strokeColor=none;fillColor=none;align=left;verticalAlign=top;spacingLeft=4;spacingRight=4;overflow=hidden;rotatable=0;points=[[0,0.5],[1,0.5]];portConstraint=eastwest;whiteSpace=wrap;html=1;" parent="K6J4-owUTtvEKUNY4Ti0-29" vertex="1">
          <mxGeometry y="78" width="200" height="62" as="geometry" />
        </mxCell>
        <mxCell id="K6J4-owUTtvEKUNY4Ti0-40" value="&lt;div&gt;&amp;lt;&amp;lt;interface&amp;gt;&amp;gt;&lt;/div&gt;&lt;div&gt;IEstudiantes&lt;/div&gt;&lt;div&gt;&lt;br&gt;&lt;/div&gt;" style="swimlane;fontStyle=1;align=center;verticalAlign=top;childLayout=stackLayout;horizontal=1;startSize=50;horizontalStack=0;resizeParent=1;resizeParentMax=0;resizeLast=0;collapsible=1;marginBottom=0;whiteSpace=wrap;html=1;" parent="WIyWlLk6GJQsqaUBKTNV-1" vertex="1">
          <mxGeometry x="-790" y="550" width="290" height="110" as="geometry" />
        </mxCell>
        <mxCell id="K6J4-owUTtvEKUNY4Ti0-42" value="" style="line;strokeWidth=1;fillColor=none;align=left;verticalAlign=middle;spacingTop=-1;spacingLeft=3;spacingRight=3;rotatable=0;labelPosition=right;points=[];portConstraint=eastwest;strokeColor=inherit;" parent="K6J4-owUTtvEKUNY4Ti0-40" vertex="1">
          <mxGeometry y="50" width="290" height="8" as="geometry" />
        </mxCell>
        <mxCell id="K6J4-owUTtvEKUNY4Ti0-43" value="+registrarEstudiante(Estudiante estudiante):void&lt;div&gt;+eliminarEstudiante(String matricula):void&lt;/div&gt;&lt;div&gt;+buscarEstudiante(String matricula):Estudiante&lt;br&gt;&lt;div&gt;&lt;br&gt;&lt;div&gt;&lt;br&gt;&lt;div&gt;&lt;br&gt;&lt;/div&gt;&lt;/div&gt;&lt;/div&gt;&lt;/div&gt;" style="text;strokeColor=none;fillColor=none;align=left;verticalAlign=top;spacingLeft=4;spacingRight=4;overflow=hidden;rotatable=0;points=[[0,0.5],[1,0.5]];portConstraint=eastwest;whiteSpace=wrap;html=1;" parent="K6J4-owUTtvEKUNY4Ti0-40" vertex="1">
          <mxGeometry y="58" width="290" height="52" as="geometry" />
        </mxCell>
        <mxCell id="K6J4-owUTtvEKUNY4Ti0-44" value="&lt;div&gt;&amp;lt;&amp;lt;interface&amp;gt;&amp;gt;&lt;/div&gt;&lt;div&gt;ICalificaciones&lt;/div&gt;&lt;div&gt;&lt;br&gt;&lt;/div&gt;" style="swimlane;fontStyle=1;align=center;verticalAlign=top;childLayout=stackLayout;horizontal=1;startSize=50;horizontalStack=0;resizeParent=1;resizeParentMax=0;resizeLast=0;collapsible=1;marginBottom=0;whiteSpace=wrap;html=1;" parent="WIyWlLk6GJQsqaUBKTNV-1" vertex="1">
          <mxGeometry x="-180" y="540" width="530" height="170" as="geometry" />
        </mxCell>
        <mxCell id="K6J4-owUTtvEKUNY4Ti0-45" value="" style="line;strokeWidth=1;fillColor=none;align=left;verticalAlign=middle;spacingTop=-1;spacingLeft=3;spacingRight=3;rotatable=0;labelPosition=right;points=[];portConstraint=eastwest;strokeColor=inherit;" parent="K6J4-owUTtvEKUNY4Ti0-44" vertex="1">
          <mxGeometry y="50" width="530" height="8" as="geometry" />
        </mxCell>
        <mxCell id="K6J4-owUTtvEKUNY4Ti0-46" value="+agregarCalificacion(String matricula, double calificacion):void&lt;div&gt;+eliminarCalificacion(String matricula, int posicion):void&lt;/div&gt;&lt;div&gt;+calcularPromedio(String matricula):double&lt;/div&gt;&lt;div&gt;+modificarCalificacion(String matricula, double calificacion, double calNueva):void&lt;/div&gt;&lt;div&gt;&lt;div&gt;+enviarSolicitudAgregarCalificaion(String matricula, double calificacion).void&lt;/div&gt;&lt;div&gt;+enviarSolicitudModificarCalificaion(String matricula, double calificacion, double calNueva)void&lt;br&gt;&lt;div&gt;+procesarSolicitud():void&lt;/div&gt;&lt;/div&gt;&lt;div&gt;&lt;br&gt;&lt;div&gt;&lt;br&gt;&lt;div&gt;&lt;br&gt;&lt;/div&gt;&lt;/div&gt;&lt;/div&gt;&lt;/div&gt;" style="text;strokeColor=none;fillColor=none;align=left;verticalAlign=top;spacingLeft=4;spacingRight=4;overflow=hidden;rotatable=0;points=[[0,0.5],[1,0.5]];portConstraint=eastwest;whiteSpace=wrap;html=1;" parent="K6J4-owUTtvEKUNY4Ti0-44" vertex="1">
          <mxGeometry y="58" width="530" height="112" as="geometry" />
        </mxCell>
        <mxCell id="K6J4-owUTtvEKUNY4Ti0-48" value="&lt;div&gt;&amp;lt;&amp;lt;interface&amp;gt;&amp;gt;&lt;/div&gt;&lt;div&gt;ICursos&lt;/div&gt;&lt;div&gt;&lt;br&gt;&lt;/div&gt;" style="swimlane;fontStyle=1;align=center;verticalAlign=top;childLayout=stackLayout;horizontal=1;startSize=50;horizontalStack=0;resizeParent=1;resizeParentMax=0;resizeLast=0;collapsible=1;marginBottom=0;whiteSpace=wrap;html=1;" parent="WIyWlLk6GJQsqaUBKTNV-1" vertex="1">
          <mxGeometry x="1510" y="550" width="290" height="110" as="geometry" />
        </mxCell>
        <mxCell id="K6J4-owUTtvEKUNY4Ti0-49" value="" style="line;strokeWidth=1;fillColor=none;align=left;verticalAlign=middle;spacingTop=-1;spacingLeft=3;spacingRight=3;rotatable=0;labelPosition=right;points=[];portConstraint=eastwest;strokeColor=inherit;" parent="K6J4-owUTtvEKUNY4Ti0-48" vertex="1">
          <mxGeometry y="50" width="290" height="8" as="geometry" />
        </mxCell>
        <mxCell id="K6J4-owUTtvEKUNY4Ti0-50" value="+agregarCursos(String clave, Cursos cursos):void&lt;div&gt;+eliminarCursos(String clave):void&lt;/div&gt;&lt;div&gt;+mostrarCursos():void&lt;br&gt;&lt;div&gt;&lt;br&gt;&lt;div&gt;&lt;br&gt;&lt;div&gt;&lt;br&gt;&lt;/div&gt;&lt;/div&gt;&lt;/div&gt;&lt;/div&gt;" style="text;strokeColor=none;fillColor=none;align=left;verticalAlign=top;spacingLeft=4;spacingRight=4;overflow=hidden;rotatable=0;points=[[0,0.5],[1,0.5]];portConstraint=eastwest;whiteSpace=wrap;html=1;" parent="K6J4-owUTtvEKUNY4Ti0-48" vertex="1">
          <mxGeometry y="58" width="290" height="52" as="geometry" />
        </mxCell>
        <mxCell id="K6J4-owUTtvEKUNY4Ti0-51" value="&lt;div&gt;&amp;lt;&amp;lt;interface&amp;gt;&amp;gt;&lt;/div&gt;&lt;div&gt;IInscripciones&lt;/div&gt;&lt;div&gt;&lt;br&gt;&lt;/div&gt;" style="swimlane;fontStyle=1;align=center;verticalAlign=top;childLayout=stackLayout;horizontal=1;startSize=50;horizontalStack=0;resizeParent=1;resizeParentMax=0;resizeLast=0;collapsible=1;marginBottom=0;whiteSpace=wrap;html=1;" parent="WIyWlLk6GJQsqaUBKTNV-1" vertex="1">
          <mxGeometry x="1005" y="550" width="350" height="160" as="geometry" />
        </mxCell>
        <mxCell id="K6J4-owUTtvEKUNY4Ti0-52" value="" style="line;strokeWidth=1;fillColor=none;align=left;verticalAlign=middle;spacingTop=-1;spacingLeft=3;spacingRight=3;rotatable=0;labelPosition=right;points=[];portConstraint=eastwest;strokeColor=inherit;" parent="K6J4-owUTtvEKUNY4Ti0-51" vertex="1">
          <mxGeometry y="50" width="350" height="8" as="geometry" />
        </mxCell>
        <mxCell id="K6J4-owUTtvEKUNY4Ti0-53" value="&lt;div&gt;+inscribirEstudianteEnCurso(String matricula, String clave):void&lt;/div&gt;&lt;div&gt;+eliminarEstudianteDeCurso(String matricula, String clave)&lt;span style=&quot;background-color: transparent; color: light-dark(rgb(0, 0, 0), rgb(255, 255, 255));&quot;&gt;:void&lt;/span&gt;&lt;/div&gt;&lt;div&gt;+mostrarInscritos(String clave)&lt;span style=&quot;background-color: transparent; color: light-dark(rgb(0, 0, 0), rgb(255, 255, 255));&quot;&gt;:void&lt;/span&gt;&lt;/div&gt;&lt;div&gt;+mostrarListaEspera(String clave, int cantidad)&lt;span style=&quot;background-color: transparent; color: light-dark(rgb(0, 0, 0), rgb(255, 255, 255));&quot;&gt;:void&lt;/span&gt;&lt;/div&gt;&lt;div&gt;+recorrerListaEsperaAdelante(String clave)&lt;span style=&quot;background-color: transparent; color: light-dark(rgb(0, 0, 0), rgb(255, 255, 255));&quot;&gt;:void&lt;/span&gt;&lt;/div&gt;&lt;div&gt;+recorrerListaEsperaAtras(String clave)&lt;span style=&quot;background-color: transparent; color: light-dark(rgb(0, 0, 0), rgb(255, 255, 255));&quot;&gt;:void&lt;/span&gt;&lt;/div&gt;" style="text;strokeColor=none;fillColor=none;align=left;verticalAlign=top;spacingLeft=4;spacingRight=4;overflow=hidden;rotatable=0;points=[[0,0.5],[1,0.5]];portConstraint=eastwest;whiteSpace=wrap;html=1;" parent="K6J4-owUTtvEKUNY4Ti0-51" vertex="1">
          <mxGeometry y="58" width="350" height="102" as="geometry" />
        </mxCell>
        <mxCell id="K6J4-owUTtvEKUNY4Ti0-55" value="&lt;div&gt;&amp;lt;&amp;lt;interface&amp;gt;&amp;gt;&lt;/div&gt;&lt;div&gt;IReportes&lt;/div&gt;&lt;div&gt;&lt;br&gt;&lt;/div&gt;" style="swimlane;fontStyle=1;align=center;verticalAlign=top;childLayout=stackLayout;horizontal=1;startSize=50;horizontalStack=0;resizeParent=1;resizeParentMax=0;resizeLast=0;collapsible=1;marginBottom=0;whiteSpace=wrap;html=1;" parent="WIyWlLk6GJQsqaUBKTNV-1" vertex="1">
          <mxGeometry x="479" y="460" width="276" height="110" as="geometry" />
        </mxCell>
        <mxCell id="K6J4-owUTtvEKUNY4Ti0-56" value="" style="line;strokeWidth=1;fillColor=none;align=left;verticalAlign=middle;spacingTop=-1;spacingLeft=3;spacingRight=3;rotatable=0;labelPosition=right;points=[];portConstraint=eastwest;strokeColor=inherit;" parent="K6J4-owUTtvEKUNY4Ti0-55" vertex="1">
          <mxGeometry y="50" width="276" height="8" as="geometry" />
        </mxCell>
        <mxCell id="K6J4-owUTtvEKUNY4Ti0-57" value="+listaPorPromedio():void&lt;div&gt;+rotarRol():void&lt;/div&gt;" style="text;strokeColor=none;fillColor=none;align=left;verticalAlign=top;spacingLeft=4;spacingRight=4;overflow=hidden;rotatable=0;points=[[0,0.5],[1,0.5]];portConstraint=eastwest;whiteSpace=wrap;html=1;" parent="K6J4-owUTtvEKUNY4Ti0-55" vertex="1">
          <mxGeometry y="58" width="276" height="52" as="geometry" />
        </mxCell>
        <mxCell id="K6J4-owUTtvEKUNY4Ti0-58" value="&lt;div&gt;&amp;lt;&amp;lt;interface&amp;gt;&amp;gt;&lt;/div&gt;&lt;div&gt;IDeshacer&lt;/div&gt;" style="swimlane;fontStyle=1;align=center;verticalAlign=top;childLayout=stackLayout;horizontal=1;startSize=50;horizontalStack=0;resizeParent=1;resizeParentMax=0;resizeLast=0;collapsible=1;marginBottom=0;whiteSpace=wrap;html=1;" parent="WIyWlLk6GJQsqaUBKTNV-1" vertex="1">
          <mxGeometry x="-393" y="550" width="160" height="90" as="geometry" />
        </mxCell>
        <mxCell id="K6J4-owUTtvEKUNY4Ti0-59" value="" style="line;strokeWidth=1;fillColor=none;align=left;verticalAlign=middle;spacingTop=-1;spacingLeft=3;spacingRight=3;rotatable=0;labelPosition=right;points=[];portConstraint=eastwest;strokeColor=inherit;" parent="K6J4-owUTtvEKUNY4Ti0-58" vertex="1">
          <mxGeometry y="50" width="160" height="8" as="geometry" />
        </mxCell>
        <mxCell id="K6J4-owUTtvEKUNY4Ti0-60" value="+deshacerAccion():String" style="text;strokeColor=none;fillColor=none;align=left;verticalAlign=top;spacingLeft=4;spacingRight=4;overflow=hidden;rotatable=0;points=[[0,0.5],[1,0.5]];portConstraint=eastwest;whiteSpace=wrap;html=1;" parent="K6J4-owUTtvEKUNY4Ti0-58" vertex="1">
          <mxGeometry y="58" width="160" height="32" as="geometry" />
        </mxCell>
        <mxCell id="K6J4-owUTtvEKUNY4Ti0-62" style="edgeStyle=orthogonalEdgeStyle;rounded=0;orthogonalLoop=1;jettySize=auto;html=1;entryX=0.5;entryY=0;entryDx=0;entryDy=0;dashed=1;endArrow=open;endFill=0;startArrow=open;startFill=0;" parent="WIyWlLk6GJQsqaUBKTNV-1" source="K6J4-owUTtvEKUNY4Ti0-7" target="K6J4-owUTtvEKUNY4Ti0-29" edge="1">
          <mxGeometry relative="1" as="geometry" />
        </mxCell>
        <mxCell id="K6J4-owUTtvEKUNY4Ti0-63" style="edgeStyle=orthogonalEdgeStyle;rounded=0;orthogonalLoop=1;jettySize=auto;html=1;dashed=1;endArrow=open;endFill=0;startArrow=open;startFill=0;" parent="WIyWlLk6GJQsqaUBKTNV-1" source="K6J4-owUTtvEKUNY4Ti0-7" target="K6J4-owUTtvEKUNY4Ti0-13" edge="1">
          <mxGeometry relative="1" as="geometry">
            <Array as="points">
              <mxPoint x="85" y="220" />
            </Array>
          </mxGeometry>
        </mxCell>
        <mxCell id="K6J4-owUTtvEKUNY4Ti0-64" style="edgeStyle=orthogonalEdgeStyle;rounded=0;orthogonalLoop=1;jettySize=auto;html=1;entryX=0.5;entryY=0;entryDx=0;entryDy=0;dashed=1;endArrow=open;endFill=0;startArrow=open;startFill=0;" parent="WIyWlLk6GJQsqaUBKTNV-1" source="K6J4-owUTtvEKUNY4Ti0-7" target="K6J4-owUTtvEKUNY4Ti0-17" edge="1">
          <mxGeometry relative="1" as="geometry">
            <Array as="points">
              <mxPoint x="1440" y="200" />
            </Array>
          </mxGeometry>
        </mxCell>
        <mxCell id="K6J4-owUTtvEKUNY4Ti0-65" style="edgeStyle=orthogonalEdgeStyle;rounded=0;orthogonalLoop=1;jettySize=auto;html=1;dashed=1;endArrow=open;endFill=0;startArrow=open;startFill=0;" parent="WIyWlLk6GJQsqaUBKTNV-1" source="K6J4-owUTtvEKUNY4Ti0-7" target="K6J4-owUTtvEKUNY4Ti0-21" edge="1">
          <mxGeometry relative="1" as="geometry" />
        </mxCell>
        <mxCell id="K6J4-owUTtvEKUNY4Ti0-66" style="edgeStyle=orthogonalEdgeStyle;rounded=0;orthogonalLoop=1;jettySize=auto;html=1;dashed=1;endArrow=open;endFill=0;startArrow=open;startFill=0;" parent="WIyWlLk6GJQsqaUBKTNV-1" source="K6J4-owUTtvEKUNY4Ti0-7" target="K6J4-owUTtvEKUNY4Ti0-25" edge="1">
          <mxGeometry relative="1" as="geometry">
            <Array as="points">
              <mxPoint x="610" y="220" />
            </Array>
          </mxGeometry>
        </mxCell>
        <mxCell id="K6J4-owUTtvEKUNY4Ti0-67" style="edgeStyle=orthogonalEdgeStyle;rounded=0;orthogonalLoop=1;jettySize=auto;html=1;exitX=0.5;exitY=1;exitDx=0;exitDy=0;exitPerimeter=0;endArrow=open;endFill=0;dashed=1;" parent="WIyWlLk6GJQsqaUBKTNV-1" source="K6J4-owUTtvEKUNY4Ti0-12" target="K6J4-owUTtvEKUNY4Ti0-40" edge="1">
          <mxGeometry relative="1" as="geometry">
            <Array as="points" />
          </mxGeometry>
        </mxCell>
        <mxCell id="K6J4-owUTtvEKUNY4Ti0-69" style="edgeStyle=orthogonalEdgeStyle;rounded=0;orthogonalLoop=1;jettySize=auto;html=1;entryX=0.5;entryY=0;entryDx=0;entryDy=0;dashed=1;endArrow=open;endFill=0;" parent="WIyWlLk6GJQsqaUBKTNV-1" source="K6J4-owUTtvEKUNY4Ti0-32" target="K6J4-owUTtvEKUNY4Ti0-58" edge="1">
          <mxGeometry relative="1" as="geometry">
            <Array as="points">
              <mxPoint x="-313" y="449" />
              <mxPoint x="-313" y="550" />
            </Array>
          </mxGeometry>
        </mxCell>
        <mxCell id="K6J4-owUTtvEKUNY4Ti0-70" style="edgeStyle=orthogonalEdgeStyle;rounded=0;orthogonalLoop=1;jettySize=auto;html=1;entryX=0.5;entryY=0;entryDx=0;entryDy=0;dashed=1;endArrow=open;endFill=0;" parent="WIyWlLk6GJQsqaUBKTNV-1" source="K6J4-owUTtvEKUNY4Ti0-16" target="K6J4-owUTtvEKUNY4Ti0-44" edge="1">
          <mxGeometry relative="1" as="geometry">
            <Array as="points">
              <mxPoint x="85" y="530" />
              <mxPoint x="85" y="530" />
            </Array>
          </mxGeometry>
        </mxCell>
        <mxCell id="K6J4-owUTtvEKUNY4Ti0-73" style="edgeStyle=orthogonalEdgeStyle;rounded=0;orthogonalLoop=1;jettySize=auto;html=1;entryX=0.5;entryY=0;entryDx=0;entryDy=0;dashed=1;endArrow=open;endFill=0;" parent="WIyWlLk6GJQsqaUBKTNV-1" source="K6J4-owUTtvEKUNY4Ti0-20" target="K6J4-owUTtvEKUNY4Ti0-48" edge="1">
          <mxGeometry relative="1" as="geometry">
            <Array as="points">
              <mxPoint x="1655" y="490" />
              <mxPoint x="1655" y="490" />
            </Array>
          </mxGeometry>
        </mxCell>
        <mxCell id="K6J4-owUTtvEKUNY4Ti0-199" style="edgeStyle=orthogonalEdgeStyle;rounded=0;orthogonalLoop=1;jettySize=auto;html=1;endArrow=open;endFill=0;dashed=1;entryX=0.457;entryY=0.02;entryDx=0;entryDy=0;entryPerimeter=0;" parent="WIyWlLk6GJQsqaUBKTNV-1" source="K6J4-owUTtvEKUNY4Ti0-81" target="K6J4-owUTtvEKUNY4Ti0-119" edge="1">
          <mxGeometry relative="1" as="geometry">
            <mxPoint x="-250" y="1060" as="targetPoint" />
            <Array as="points">
              <mxPoint x="-580" y="950" />
              <mxPoint x="-240" y="950" />
              <mxPoint x="-240" y="1060" />
            </Array>
          </mxGeometry>
        </mxCell>
        <mxCell id="K6J4-owUTtvEKUNY4Ti0-81" value="&amp;lt;&amp;lt;facade&amp;gt;&amp;gt;&lt;div&gt;FEstudiantes&lt;/div&gt;" style="swimlane;fontStyle=1;align=center;verticalAlign=top;childLayout=stackLayout;horizontal=1;startSize=41;horizontalStack=0;resizeParent=1;resizeParentMax=0;resizeLast=0;collapsible=1;marginBottom=0;whiteSpace=wrap;html=1;" parent="WIyWlLk6GJQsqaUBKTNV-1" vertex="1">
          <mxGeometry x="-840" y="760" width="390" height="160" as="geometry" />
        </mxCell>
        <mxCell id="K6J4-owUTtvEKUNY4Ti0-82" value="&lt;div&gt;-arbol:arbolBinarioBusqueda&amp;lt;Estudiantes&amp;gt;&lt;/div&gt;" style="text;strokeColor=none;fillColor=none;align=left;verticalAlign=top;spacingLeft=4;spacingRight=4;overflow=hidden;rotatable=0;points=[[0,0.5],[1,0.5]];portConstraint=eastwest;whiteSpace=wrap;html=1;" parent="K6J4-owUTtvEKUNY4Ti0-81" vertex="1">
          <mxGeometry y="41" width="390" height="29" as="geometry" />
        </mxCell>
        <mxCell id="K6J4-owUTtvEKUNY4Ti0-83" value="" style="line;strokeWidth=1;fillColor=none;align=left;verticalAlign=middle;spacingTop=-1;spacingLeft=3;spacingRight=3;rotatable=0;labelPosition=right;points=[];portConstraint=eastwest;strokeColor=inherit;" parent="K6J4-owUTtvEKUNY4Ti0-81" vertex="1">
          <mxGeometry y="70" width="390" height="8" as="geometry" />
        </mxCell>
        <mxCell id="K6J4-owUTtvEKUNY4Ti0-84" value="&lt;div&gt;+registrarEstudiante(Estudiante estudiante):void&lt;div&gt;+eliminarEstudiante(String matricula):void&lt;/div&gt;&lt;div&gt;+buscarEstudiante(String matricula):Estudiante&lt;/div&gt;&lt;/div&gt;&lt;div&gt;+FEstudiantes(ArbolBinarioBusqueda&amp;lt;Estudiantes&amp;gt; arbolCompartido)&lt;/div&gt;" style="text;strokeColor=none;fillColor=none;align=left;verticalAlign=top;spacingLeft=4;spacingRight=4;overflow=hidden;rotatable=0;points=[[0,0.5],[1,0.5]];portConstraint=eastwest;whiteSpace=wrap;html=1;" parent="K6J4-owUTtvEKUNY4Ti0-81" vertex="1">
          <mxGeometry y="78" width="390" height="82" as="geometry" />
        </mxCell>
        <mxCell id="K6J4-owUTtvEKUNY4Ti0-261" style="edgeStyle=orthogonalEdgeStyle;rounded=0;orthogonalLoop=1;jettySize=auto;html=1;dashed=1;endArrow=open;endFill=0;" parent="WIyWlLk6GJQsqaUBKTNV-1" source="K6J4-owUTtvEKUNY4Ti0-85" target="K6J4-owUTtvEKUNY4Ti0-250" edge="1">
          <mxGeometry relative="1" as="geometry">
            <Array as="points">
              <mxPoint x="-340" y="1070" />
              <mxPoint x="80" y="1070" />
            </Array>
          </mxGeometry>
        </mxCell>
        <mxCell id="K6J4-owUTtvEKUNY4Ti0-85" value="&amp;lt;&amp;lt;facade&amp;gt;&amp;gt;&lt;div&gt;FDeshacer&lt;/div&gt;" style="swimlane;fontStyle=1;align=center;verticalAlign=top;childLayout=stackLayout;horizontal=1;startSize=41;horizontalStack=0;resizeParent=1;resizeParentMax=0;resizeLast=0;collapsible=1;marginBottom=0;whiteSpace=wrap;html=1;" parent="WIyWlLk6GJQsqaUBKTNV-1" vertex="1">
          <mxGeometry x="-436" y="760" width="246" height="140" as="geometry" />
        </mxCell>
        <mxCell id="OIxu4wRiIj-_0-UoY-lG-11" value="-pila:static Pila&amp;lt;Accion&amp;gt;" style="text;html=1;align=left;verticalAlign=middle;whiteSpace=wrap;rounded=0;" vertex="1" parent="K6J4-owUTtvEKUNY4Ti0-85">
          <mxGeometry y="41" width="246" height="19" as="geometry" />
        </mxCell>
        <mxCell id="K6J4-owUTtvEKUNY4Ti0-87" value="" style="line;strokeWidth=1;fillColor=none;align=left;verticalAlign=middle;spacingTop=-1;spacingLeft=3;spacingRight=3;rotatable=0;labelPosition=right;points=[];portConstraint=eastwest;strokeColor=inherit;" parent="K6J4-owUTtvEKUNY4Ti0-85" vertex="1">
          <mxGeometry y="60" width="246" height="20" as="geometry" />
        </mxCell>
        <mxCell id="K6J4-owUTtvEKUNY4Ti0-88" value="&lt;span style=&quot;color: rgb(0, 0, 0); font-family: Helvetica; font-size: 12px; font-style: normal; font-variant-ligatures: normal; font-variant-caps: normal; font-weight: 400; letter-spacing: normal; orphans: 2; text-align: left; text-indent: 0px; text-transform: none; widows: 2; word-spacing: 0px; -webkit-text-stroke-width: 0px; white-space: normal; text-decoration-thickness: initial; text-decoration-style: initial; text-decoration-color: initial; float: none; background-color: rgb(255, 255, 255); display: inline !important;&quot;&gt;+deshacerAccion():String&lt;/span&gt;&lt;div&gt;+RegistrarAccion(Accion accion):static void&lt;br&gt;&lt;div&gt;&lt;br&gt;&lt;/div&gt;&lt;/div&gt;" style="text;strokeColor=none;fillColor=none;align=left;verticalAlign=top;spacingLeft=4;spacingRight=4;overflow=hidden;rotatable=0;points=[[0,0.5],[1,0.5]];portConstraint=eastwest;whiteSpace=wrap;html=1;" parent="K6J4-owUTtvEKUNY4Ti0-85" vertex="1">
          <mxGeometry y="80" width="246" height="60" as="geometry" />
        </mxCell>
        <mxCell id="K6J4-owUTtvEKUNY4Ti0-110" style="edgeStyle=orthogonalEdgeStyle;rounded=0;orthogonalLoop=1;jettySize=auto;html=1;entryX=0.5;entryY=1;entryDx=0;entryDy=0;dashed=1;endArrow=block;endFill=0;" parent="WIyWlLk6GJQsqaUBKTNV-1" source="K6J4-owUTtvEKUNY4Ti0-89" target="K6J4-owUTtvEKUNY4Ti0-44" edge="1">
          <mxGeometry relative="1" as="geometry" />
        </mxCell>
        <mxCell id="K6J4-owUTtvEKUNY4Ti0-203" style="edgeStyle=orthogonalEdgeStyle;rounded=0;orthogonalLoop=1;jettySize=auto;html=1;entryX=0.5;entryY=0;entryDx=0;entryDy=0;endArrow=open;endFill=0;dashed=1;" parent="WIyWlLk6GJQsqaUBKTNV-1" source="K6J4-owUTtvEKUNY4Ti0-89" target="K6J4-owUTtvEKUNY4Ti0-134" edge="1">
          <mxGeometry relative="1" as="geometry">
            <Array as="points">
              <mxPoint x="120" y="960" />
              <mxPoint x="-1630" y="960" />
            </Array>
          </mxGeometry>
        </mxCell>
        <mxCell id="K6J4-owUTtvEKUNY4Ti0-89" value="&amp;lt;&amp;lt;facade&amp;gt;&amp;gt;&lt;div&gt;FCalificaciones&lt;/div&gt;" style="swimlane;fontStyle=1;align=center;verticalAlign=top;childLayout=stackLayout;horizontal=1;startSize=41;horizontalStack=0;resizeParent=1;resizeParentMax=0;resizeLast=0;collapsible=1;marginBottom=0;whiteSpace=wrap;html=1;" parent="WIyWlLk6GJQsqaUBKTNV-1" vertex="1">
          <mxGeometry x="-180" y="730" width="530" height="210" as="geometry" />
        </mxCell>
        <mxCell id="K6J4-owUTtvEKUNY4Ti0-90" value="-arbol:arbolBinarioBusqueda&amp;lt;Estudiantes&amp;gt;&lt;div&gt;-colaSolicitudes:Cola&amp;lt;Accion&amp;gt;&lt;/div&gt;" style="text;strokeColor=none;fillColor=none;align=left;verticalAlign=top;spacingLeft=4;spacingRight=4;overflow=hidden;rotatable=0;points=[[0,0.5],[1,0.5]];portConstraint=eastwest;whiteSpace=wrap;html=1;" parent="K6J4-owUTtvEKUNY4Ti0-89" vertex="1">
          <mxGeometry y="41" width="530" height="29" as="geometry" />
        </mxCell>
        <mxCell id="K6J4-owUTtvEKUNY4Ti0-91" value="" style="line;strokeWidth=1;fillColor=none;align=left;verticalAlign=middle;spacingTop=-1;spacingLeft=3;spacingRight=3;rotatable=0;labelPosition=right;points=[];portConstraint=eastwest;strokeColor=inherit;" parent="K6J4-owUTtvEKUNY4Ti0-89" vertex="1">
          <mxGeometry y="70" width="530" height="8" as="geometry" />
        </mxCell>
        <mxCell id="K6J4-owUTtvEKUNY4Ti0-92" value="&lt;div&gt;+FCalificaciones(ArbolBinarioBusqueda&amp;lt;Estudiantes&amp;gt; arbolCompartido)&lt;/div&gt;+agregarCalificacion(String matricula, double calificacion):void&lt;div&gt;+eliminarCalificacion(String matricula, int posicion):void&lt;/div&gt;&lt;div&gt;+calcularPromedio(String matricula):double&lt;/div&gt;&lt;div&gt;+modificarCalificacion(String matricula, double calificacion, double calNueva):void&lt;/div&gt;&lt;div&gt;+enviarSolicitudAgregarCalificaion(String matricula, double calificacion).void&lt;/div&gt;&lt;div&gt;+enviarSolicitudModificarCalificaion(String matricula, double calificacion, double calNueva)void&lt;br&gt;&lt;div&gt;+procesarSolicitud():void&lt;br&gt;&lt;div&gt;&lt;br&gt;&lt;div&gt;&lt;br&gt;&lt;/div&gt;&lt;/div&gt;&lt;/div&gt;&lt;/div&gt;" style="text;strokeColor=none;fillColor=none;align=left;verticalAlign=top;spacingLeft=4;spacingRight=4;overflow=hidden;rotatable=0;points=[[0,0.5],[1,0.5]];portConstraint=eastwest;whiteSpace=wrap;html=1;" parent="K6J4-owUTtvEKUNY4Ti0-89" vertex="1">
          <mxGeometry y="78" width="530" height="132" as="geometry" />
        </mxCell>
        <mxCell id="K6J4-owUTtvEKUNY4Ti0-111" style="edgeStyle=orthogonalEdgeStyle;rounded=0;orthogonalLoop=1;jettySize=auto;html=1;entryX=0.5;entryY=1;entryDx=0;entryDy=0;endArrow=block;endFill=0;dashed=1;" parent="WIyWlLk6GJQsqaUBKTNV-1" source="K6J4-owUTtvEKUNY4Ti0-93" target="K6J4-owUTtvEKUNY4Ti0-55" edge="1">
          <mxGeometry relative="1" as="geometry">
            <Array as="points">
              <mxPoint x="617" y="620" />
              <mxPoint x="617" y="620" />
            </Array>
          </mxGeometry>
        </mxCell>
        <mxCell id="OIxu4wRiIj-_0-UoY-lG-21" style="edgeStyle=orthogonalEdgeStyle;rounded=0;orthogonalLoop=1;jettySize=auto;html=1;dashed=1;endArrow=open;endFill=0;" edge="1" parent="WIyWlLk6GJQsqaUBKTNV-1" source="K6J4-owUTtvEKUNY4Ti0-93" target="K6J4-owUTtvEKUNY4Ti0-115">
          <mxGeometry relative="1" as="geometry">
            <Array as="points">
              <mxPoint x="540" y="1080" />
              <mxPoint x="-685" y="1080" />
            </Array>
          </mxGeometry>
        </mxCell>
        <mxCell id="OIxu4wRiIj-_0-UoY-lG-22" style="edgeStyle=orthogonalEdgeStyle;rounded=0;orthogonalLoop=1;jettySize=auto;html=1;entryX=0;entryY=0.5;entryDx=0;entryDy=0;dashed=1;endArrow=open;endFill=0;" edge="1" parent="WIyWlLk6GJQsqaUBKTNV-1" source="K6J4-owUTtvEKUNY4Ti0-93" target="K6J4-owUTtvEKUNY4Ti0-124">
          <mxGeometry relative="1" as="geometry">
            <Array as="points">
              <mxPoint x="633" y="970" />
              <mxPoint x="-510" y="970" />
              <mxPoint x="-510" y="1390" />
              <mxPoint x="-360" y="1390" />
              <mxPoint x="-360" y="1421" />
            </Array>
          </mxGeometry>
        </mxCell>
        <mxCell id="OIxu4wRiIj-_0-UoY-lG-24" style="edgeStyle=orthogonalEdgeStyle;rounded=0;orthogonalLoop=1;jettySize=auto;html=1;entryX=0.75;entryY=0;entryDx=0;entryDy=0;dashed=1;endArrow=open;endFill=0;" edge="1" parent="WIyWlLk6GJQsqaUBKTNV-1" source="K6J4-owUTtvEKUNY4Ti0-93" target="K6J4-owUTtvEKUNY4Ti0-205">
          <mxGeometry relative="1" as="geometry">
            <Array as="points">
              <mxPoint x="440" y="300" />
              <mxPoint x="-1025" y="300" />
            </Array>
          </mxGeometry>
        </mxCell>
        <mxCell id="OIxu4wRiIj-_0-UoY-lG-26" style="edgeStyle=orthogonalEdgeStyle;rounded=0;orthogonalLoop=1;jettySize=auto;html=1;entryX=1;entryY=0.5;entryDx=0;entryDy=0;dashed=1;endArrow=open;endFill=0;" edge="1" parent="WIyWlLk6GJQsqaUBKTNV-1" source="K6J4-owUTtvEKUNY4Ti0-93" target="K6J4-owUTtvEKUNY4Ti0-236">
          <mxGeometry relative="1" as="geometry">
            <Array as="points">
              <mxPoint x="460" y="271" />
            </Array>
          </mxGeometry>
        </mxCell>
        <mxCell id="K6J4-owUTtvEKUNY4Ti0-93" value="&amp;lt;&amp;lt;facade&amp;gt;&amp;gt;&lt;div&gt;FReportes&lt;/div&gt;" style="swimlane;fontStyle=1;align=center;verticalAlign=top;childLayout=stackLayout;horizontal=1;startSize=41;horizontalStack=0;resizeParent=1;resizeParentMax=0;resizeLast=0;collapsible=1;marginBottom=0;whiteSpace=wrap;html=1;" parent="WIyWlLk6GJQsqaUBKTNV-1" vertex="1">
          <mxGeometry x="380" y="670" width="506" height="200" as="geometry" />
        </mxCell>
        <mxCell id="K6J4-owUTtvEKUNY4Ti0-94" value="&lt;div&gt;&lt;br&gt;&lt;/div&gt;" style="text;strokeColor=none;fillColor=none;align=left;verticalAlign=top;spacingLeft=4;spacingRight=4;overflow=hidden;rotatable=0;points=[[0,0.5],[1,0.5]];portConstraint=eastwest;whiteSpace=wrap;html=1;" parent="K6J4-owUTtvEKUNY4Ti0-93" vertex="1">
          <mxGeometry y="41" width="506" height="1" as="geometry" />
        </mxCell>
        <mxCell id="OIxu4wRiIj-_0-UoY-lG-18" value="-Cursos:Diccionario&amp;lt;String, Cursos&amp;gt;&lt;div&gt;-arbolEstudiante:arbolBinarioBusqueda&amp;lt;Estudiantes&amp;gt;&lt;/div&gt;&lt;div&gt;-gestorCalificaciones:FCalificaciones&lt;/div&gt;" style="text;html=1;align=left;verticalAlign=middle;resizable=0;points=[];autosize=1;strokeColor=none;fillColor=none;" vertex="1" parent="K6J4-owUTtvEKUNY4Ti0-93">
          <mxGeometry y="42" width="506" height="60" as="geometry" />
        </mxCell>
        <mxCell id="K6J4-owUTtvEKUNY4Ti0-95" value="" style="line;strokeWidth=1;fillColor=none;align=left;verticalAlign=middle;spacingTop=-1;spacingLeft=3;spacingRight=3;rotatable=0;labelPosition=right;points=[];portConstraint=eastwest;strokeColor=inherit;" parent="K6J4-owUTtvEKUNY4Ti0-93" vertex="1">
          <mxGeometry y="102" width="506" height="20" as="geometry" />
        </mxCell>
        <mxCell id="K6J4-owUTtvEKUNY4Ti0-96" value="&lt;div&gt;&lt;div&gt;&lt;div&gt;&lt;div&gt;+listaPorPromedio():void&lt;div&gt;+rotarRol():void&lt;/div&gt;&lt;/div&gt;&lt;/div&gt;&lt;/div&gt;&lt;/div&gt;&lt;div&gt;+recorrerEInsertar(Nodo&amp;lt;Estudiantes&amp;gt; nodo, ArbolAVL&amp;lt;Calificaciones&amp;gt; arbolPromedios)&lt;/div&gt;&lt;div&gt;+&lt;span style=&quot;background-color: transparent;&quot;&gt;FReportes(&lt;/span&gt;&lt;span style=&quot;background-color: transparent; color: light-dark(rgb(0, 0, 0), rgb(255, 255, 255));&quot;&gt;Diccionario&amp;lt;String, Cursos&amp;gt; cursos,&amp;nbsp;&lt;/span&gt;&lt;span style=&quot;background-color: transparent; color: light-dark(rgb(0, 0, 0), rgb(255, 255, 255));&quot;&gt;ArbolBinarioBusqueda&amp;lt;Estudiantes&amp;gt; arbolEstudiantes,&lt;/span&gt;&lt;/div&gt;&lt;div&gt;&amp;nbsp; &amp;nbsp; &amp;nbsp; &amp;nbsp; &amp;nbsp; &amp;nbsp; FCalificaciones gestorCalificaciones&lt;/div&gt;&lt;div&gt;&amp;nbsp; &amp;nbsp; )&lt;/div&gt;" style="text;strokeColor=none;fillColor=none;align=left;verticalAlign=top;spacingLeft=4;spacingRight=4;overflow=hidden;rotatable=0;points=[[0,0.5],[1,0.5]];portConstraint=eastwest;whiteSpace=wrap;html=1;" parent="K6J4-owUTtvEKUNY4Ti0-93" vertex="1">
          <mxGeometry y="122" width="506" height="78" as="geometry" />
        </mxCell>
        <mxCell id="K6J4-owUTtvEKUNY4Ti0-201" style="edgeStyle=orthogonalEdgeStyle;rounded=0;orthogonalLoop=1;jettySize=auto;html=1;entryX=0.492;entryY=-0.002;entryDx=0;entryDy=0;dashed=1;endArrow=open;endFill=0;entryPerimeter=0;" parent="WIyWlLk6GJQsqaUBKTNV-1" source="K6J4-owUTtvEKUNY4Ti0-97" target="K6J4-owUTtvEKUNY4Ti0-158" edge="1">
          <mxGeometry relative="1" as="geometry">
            <Array as="points">
              <mxPoint x="995" y="1000" />
              <mxPoint x="370" y="1000" />
              <mxPoint x="370" y="1100" />
              <mxPoint x="371" y="1100" />
            </Array>
          </mxGeometry>
        </mxCell>
        <mxCell id="K6J4-owUTtvEKUNY4Ti0-97" value="&amp;lt;&amp;lt;facade&amp;gt;&amp;gt;&lt;div&gt;FInscripciones&lt;/div&gt;" style="swimlane;fontStyle=1;align=center;verticalAlign=top;childLayout=stackLayout;horizontal=1;startSize=41;horizontalStack=0;resizeParent=1;resizeParentMax=0;resizeLast=0;collapsible=1;marginBottom=0;whiteSpace=wrap;html=1;" parent="WIyWlLk6GJQsqaUBKTNV-1" vertex="1">
          <mxGeometry x="900" y="760" width="560" height="199" as="geometry" />
        </mxCell>
        <mxCell id="K6J4-owUTtvEKUNY4Ti0-98" value="&lt;div&gt;&lt;br&gt;&lt;/div&gt;" style="text;strokeColor=none;fillColor=none;align=left;verticalAlign=top;spacingLeft=4;spacingRight=4;overflow=hidden;rotatable=0;points=[[0,0.5],[1,0.5]];portConstraint=eastwest;whiteSpace=wrap;html=1;" parent="K6J4-owUTtvEKUNY4Ti0-97" vertex="1">
          <mxGeometry y="41" width="560" height="1" as="geometry" />
        </mxCell>
        <mxCell id="OIxu4wRiIj-_0-UoY-lG-15" value="-cursos:diccionario&amp;lt;String,Cursos&amp;gt;&lt;div&gt;-estudiantes:ArbolBinarioBusqueda&amp;lt;Estudiantes&amp;gt;&lt;/div&gt;" style="text;html=1;align=left;verticalAlign=middle;whiteSpace=wrap;rounded=0;" vertex="1" parent="K6J4-owUTtvEKUNY4Ti0-97">
          <mxGeometry y="42" width="560" height="30" as="geometry" />
        </mxCell>
        <mxCell id="K6J4-owUTtvEKUNY4Ti0-101" value="&lt;div&gt;&lt;br&gt;&lt;/div&gt;" style="text;strokeColor=none;fillColor=none;align=left;verticalAlign=top;spacingLeft=4;spacingRight=4;overflow=hidden;rotatable=0;points=[[0,0.5],[1,0.5]];portConstraint=eastwest;whiteSpace=wrap;html=1;" parent="K6J4-owUTtvEKUNY4Ti0-97" vertex="1">
          <mxGeometry y="72" width="560" as="geometry" />
        </mxCell>
        <mxCell id="K6J4-owUTtvEKUNY4Ti0-99" value="" style="line;strokeWidth=1;fillColor=none;align=left;verticalAlign=middle;spacingTop=-1;spacingLeft=3;spacingRight=3;rotatable=0;labelPosition=right;points=[];portConstraint=eastwest;strokeColor=inherit;" parent="K6J4-owUTtvEKUNY4Ti0-97" vertex="1">
          <mxGeometry y="72" width="560" height="8" as="geometry" />
        </mxCell>
        <mxCell id="K6J4-owUTtvEKUNY4Ti0-100" value="&lt;div&gt;+FInscripciones(Diccionario&amp;lt;String, Cursos&amp;gt; cursos, ArbolBinarioBusqueda&amp;lt;Estudiantes&amp;gt; estudiantes)&lt;/div&gt;&lt;div&gt;+inscribirEstudianteEnCurso(String matricula, String clave):void&lt;/div&gt;&lt;div&gt;+eliminarEstudianteDeCurso(String matricula, String clave)&lt;span style=&quot;background-color: transparent; color: light-dark(rgb(0, 0, 0), rgb(255, 255, 255));&quot;&gt;:void&lt;/span&gt;&lt;/div&gt;&lt;div&gt;+mostrarInscritos(String clave)&lt;span style=&quot;background-color: transparent; color: light-dark(rgb(0, 0, 0), rgb(255, 255, 255));&quot;&gt;:void&lt;/span&gt;&lt;/div&gt;&lt;div&gt;+mostrarListaEspera(String clave, int cantidad)&lt;span style=&quot;background-color: transparent; color: light-dark(rgb(0, 0, 0), rgb(255, 255, 255));&quot;&gt;:void&lt;/span&gt;&lt;/div&gt;&lt;div&gt;+recorrerListaEsperaAdelante(String clave)&lt;span style=&quot;background-color: transparent; color: light-dark(rgb(0, 0, 0), rgb(255, 255, 255));&quot;&gt;:void&lt;/span&gt;&lt;/div&gt;&lt;div&gt;+recorrerListaEsperaAtras(String clave)&lt;span style=&quot;background-color: transparent; color: light-dark(rgb(0, 0, 0), rgb(255, 255, 255));&quot;&gt;:void&lt;/span&gt;&lt;/div&gt;" style="text;strokeColor=none;fillColor=none;align=left;verticalAlign=top;spacingLeft=4;spacingRight=4;overflow=hidden;rotatable=0;points=[[0,0.5],[1,0.5]];portConstraint=eastwest;whiteSpace=wrap;html=1;" parent="K6J4-owUTtvEKUNY4Ti0-97" vertex="1">
          <mxGeometry y="80" width="560" height="119" as="geometry" />
        </mxCell>
        <mxCell id="K6J4-owUTtvEKUNY4Ti0-232" style="edgeStyle=orthogonalEdgeStyle;rounded=0;orthogonalLoop=1;jettySize=auto;html=1;entryX=0.5;entryY=0;entryDx=0;entryDy=0;dashed=1;endArrow=open;endFill=0;exitX=0.556;exitY=1.097;exitDx=0;exitDy=0;exitPerimeter=0;" parent="WIyWlLk6GJQsqaUBKTNV-1" source="OIxu4wRiIj-_0-UoY-lG-9" target="K6J4-owUTtvEKUNY4Ti0-223" edge="1">
          <mxGeometry relative="1" as="geometry">
            <Array as="points">
              <mxPoint x="1669" y="900" />
              <mxPoint x="1669" y="1030" />
              <mxPoint x="-1130" y="1030" />
            </Array>
            <mxPoint x="1470" y="850" as="sourcePoint" />
          </mxGeometry>
        </mxCell>
        <mxCell id="OIxu4wRiIj-_0-UoY-lG-5" style="edgeStyle=orthogonalEdgeStyle;rounded=0;orthogonalLoop=1;jettySize=auto;html=1;entryX=1;entryY=0.25;entryDx=0;entryDy=0;dashed=1;endArrow=open;endFill=0;" edge="1" parent="WIyWlLk6GJQsqaUBKTNV-1" source="K6J4-owUTtvEKUNY4Ti0-102" target="K6J4-owUTtvEKUNY4Ti0-58">
          <mxGeometry relative="1" as="geometry">
            <Array as="points">
              <mxPoint x="1630" y="970" />
              <mxPoint x="1370" y="970" />
              <mxPoint x="1370" y="990" />
              <mxPoint x="360" y="990" />
              <mxPoint x="360" y="510" />
              <mxPoint x="-200" y="510" />
              <mxPoint x="-200" y="572" />
            </Array>
          </mxGeometry>
        </mxCell>
        <mxCell id="OIxu4wRiIj-_0-UoY-lG-7" style="edgeStyle=orthogonalEdgeStyle;rounded=0;orthogonalLoop=1;jettySize=auto;html=1;entryX=1;entryY=0.5;entryDx=0;entryDy=0;dashed=1;endArrow=open;endFill=0;" edge="1" parent="WIyWlLk6GJQsqaUBKTNV-1" source="K6J4-owUTtvEKUNY4Ti0-102" target="K6J4-owUTtvEKUNY4Ti0-251">
          <mxGeometry relative="1" as="geometry">
            <Array as="points">
              <mxPoint x="2050" y="819" />
              <mxPoint x="2050" y="1820" />
            </Array>
          </mxGeometry>
        </mxCell>
        <mxCell id="OIxu4wRiIj-_0-UoY-lG-8" style="edgeStyle=orthogonalEdgeStyle;rounded=0;orthogonalLoop=1;jettySize=auto;html=1;dashed=1;endArrow=open;endFill=0;" edge="1" parent="WIyWlLk6GJQsqaUBKTNV-1" source="K6J4-owUTtvEKUNY4Ti0-102" target="K6J4-owUTtvEKUNY4Ti0-255">
          <mxGeometry relative="1" as="geometry">
            <Array as="points">
              <mxPoint x="2070" y="798" />
              <mxPoint x="2070" y="2045" />
            </Array>
          </mxGeometry>
        </mxCell>
        <mxCell id="K6J4-owUTtvEKUNY4Ti0-102" value="&amp;lt;&amp;lt;facade&amp;gt;&amp;gt;&lt;div&gt;FCursos&lt;/div&gt;" style="swimlane;fontStyle=1;align=center;verticalAlign=top;childLayout=stackLayout;horizontal=1;startSize=41;horizontalStack=0;resizeParent=1;resizeParentMax=0;resizeLast=0;collapsible=1;marginBottom=0;whiteSpace=wrap;html=1;" parent="WIyWlLk6GJQsqaUBKTNV-1" vertex="1">
          <mxGeometry x="1510" y="718" width="285" height="146" as="geometry" />
        </mxCell>
        <mxCell id="K6J4-owUTtvEKUNY4Ti0-103" value="&lt;div&gt;&lt;br&gt;&lt;/div&gt;" style="text;strokeColor=none;fillColor=none;align=left;verticalAlign=top;spacingLeft=4;spacingRight=4;overflow=hidden;rotatable=0;points=[[0,0.5],[1,0.5]];portConstraint=eastwest;whiteSpace=wrap;html=1;" parent="K6J4-owUTtvEKUNY4Ti0-102" vertex="1">
          <mxGeometry y="41" width="285" height="1" as="geometry" />
        </mxCell>
        <mxCell id="K6J4-owUTtvEKUNY4Ti0-104" value="&lt;div&gt;&lt;br&gt;&lt;/div&gt;" style="text;strokeColor=none;fillColor=none;align=left;verticalAlign=top;spacingLeft=4;spacingRight=4;overflow=hidden;rotatable=0;points=[[0,0.5],[1,0.5]];portConstraint=eastwest;whiteSpace=wrap;html=1;" parent="K6J4-owUTtvEKUNY4Ti0-102" vertex="1">
          <mxGeometry y="42" width="285" height="1" as="geometry" />
        </mxCell>
        <mxCell id="OIxu4wRiIj-_0-UoY-lG-4" value="+accion:Accion&lt;div&gt;+cursosDiccionario&amp;lt;String, Cursos&amp;gt;&lt;/div&gt;" style="text;html=1;align=left;verticalAlign=middle;resizable=0;points=[];autosize=1;strokeColor=none;fillColor=none;" vertex="1" parent="K6J4-owUTtvEKUNY4Ti0-102">
          <mxGeometry y="43" width="285" height="40" as="geometry" />
        </mxCell>
        <mxCell id="K6J4-owUTtvEKUNY4Ti0-105" value="" style="line;strokeWidth=1;fillColor=none;align=left;verticalAlign=middle;spacingTop=-1;spacingLeft=3;spacingRight=3;rotatable=0;labelPosition=right;points=[];portConstraint=eastwest;strokeColor=inherit;" parent="K6J4-owUTtvEKUNY4Ti0-102" vertex="1">
          <mxGeometry y="83" width="285" height="13" as="geometry" />
        </mxCell>
        <mxCell id="OIxu4wRiIj-_0-UoY-lG-9" value="+agregarCursos(String clave, Cursos cursos):void&lt;div&gt;+eliminarCursos(String clave):void&lt;/div&gt;&lt;div&gt;+mostrarCursos():void&lt;br&gt;&lt;div&gt;&lt;br&gt;&lt;div&gt;&lt;br&gt;&lt;div&gt;&lt;br&gt;&lt;/div&gt;&lt;/div&gt;&lt;/div&gt;&lt;/div&gt;" style="text;strokeColor=none;fillColor=none;align=left;verticalAlign=top;spacingLeft=4;spacingRight=4;overflow=hidden;rotatable=0;points=[[0,0.5],[1,0.5]];portConstraint=eastwest;whiteSpace=wrap;html=1;" vertex="1" parent="K6J4-owUTtvEKUNY4Ti0-102">
          <mxGeometry y="96" width="285" height="50" as="geometry" />
        </mxCell>
        <mxCell id="K6J4-owUTtvEKUNY4Ti0-107" style="edgeStyle=orthogonalEdgeStyle;rounded=0;orthogonalLoop=1;jettySize=auto;html=1;entryX=0.5;entryY=1;entryDx=0;entryDy=0;entryPerimeter=0;dashed=1;endArrow=block;endFill=0;" parent="WIyWlLk6GJQsqaUBKTNV-1" source="K6J4-owUTtvEKUNY4Ti0-81" target="K6J4-owUTtvEKUNY4Ti0-43" edge="1">
          <mxGeometry relative="1" as="geometry">
            <Array as="points" />
          </mxGeometry>
        </mxCell>
        <mxCell id="K6J4-owUTtvEKUNY4Ti0-109" style="edgeStyle=orthogonalEdgeStyle;rounded=0;orthogonalLoop=1;jettySize=auto;html=1;entryX=0.509;entryY=1;entryDx=0;entryDy=0;entryPerimeter=0;endArrow=block;endFill=0;dashed=1;" parent="WIyWlLk6GJQsqaUBKTNV-1" source="K6J4-owUTtvEKUNY4Ti0-85" target="K6J4-owUTtvEKUNY4Ti0-60" edge="1">
          <mxGeometry relative="1" as="geometry" />
        </mxCell>
        <mxCell id="K6J4-owUTtvEKUNY4Ti0-112" style="edgeStyle=orthogonalEdgeStyle;rounded=0;orthogonalLoop=1;jettySize=auto;html=1;entryX=0.5;entryY=1;entryDx=0;entryDy=0;entryPerimeter=0;dashed=1;endArrow=block;endFill=0;" parent="WIyWlLk6GJQsqaUBKTNV-1" source="K6J4-owUTtvEKUNY4Ti0-97" target="K6J4-owUTtvEKUNY4Ti0-53" edge="1">
          <mxGeometry relative="1" as="geometry" />
        </mxCell>
        <mxCell id="K6J4-owUTtvEKUNY4Ti0-114" style="edgeStyle=orthogonalEdgeStyle;rounded=0;orthogonalLoop=1;jettySize=auto;html=1;entryX=0.491;entryY=1;entryDx=0;entryDy=0;entryPerimeter=0;endArrow=block;endFill=0;dashed=1;" parent="WIyWlLk6GJQsqaUBKTNV-1" source="K6J4-owUTtvEKUNY4Ti0-102" target="K6J4-owUTtvEKUNY4Ti0-50" edge="1">
          <mxGeometry relative="1" as="geometry" />
        </mxCell>
        <mxCell id="K6J4-owUTtvEKUNY4Ti0-115" value="&amp;lt;&amp;lt;Implements&amp;gt;&amp;gt;&lt;div&gt;ArbolAVL&amp;lt;T extends Comparable&amp;lt;T&amp;gt;&amp;gt;&lt;/div&gt;" style="swimlane;fontStyle=1;align=center;verticalAlign=top;childLayout=stackLayout;horizontal=1;startSize=41;horizontalStack=0;resizeParent=1;resizeParentMax=0;resizeLast=0;collapsible=1;marginBottom=0;whiteSpace=wrap;html=1;" parent="WIyWlLk6GJQsqaUBKTNV-1" vertex="1">
          <mxGeometry x="-830" y="1100" width="290" height="240" as="geometry">
            <mxRectangle x="-760" y="1090" width="250" height="41" as="alternateBounds" />
          </mxGeometry>
        </mxCell>
        <mxCell id="K6J4-owUTtvEKUNY4Ti0-117" value="" style="line;strokeWidth=1;fillColor=none;align=left;verticalAlign=middle;spacingTop=-1;spacingLeft=3;spacingRight=3;rotatable=0;labelPosition=right;points=[];portConstraint=eastwest;strokeColor=inherit;" parent="K6J4-owUTtvEKUNY4Ti0-115" vertex="1">
          <mxGeometry y="41" width="290" height="8" as="geometry" />
        </mxCell>
        <mxCell id="K6J4-owUTtvEKUNY4Ti0-118" value="+eliminar(T dato):void&lt;div&gt;-eliminar(Nodo&amp;lt;T&amp;gt; nodo, T dato):Nodo&amp;lt;T&amp;gt;&lt;/div&gt;&lt;div&gt;-finMin(&lt;span style=&quot;background-color: transparent; color: light-dark(rgb(0, 0, 0), rgb(255, 255, 255));&quot;&gt;Nodo&amp;lt;T&amp;gt; nodo&lt;/span&gt;&lt;span style=&quot;background-color: transparent; color: light-dark(rgb(0, 0, 0), rgb(255, 255, 255));&quot;&gt;): Nodo&amp;lt;T&amp;gt;&lt;/span&gt;&lt;/div&gt;&lt;div&gt;&lt;span style=&quot;background-color: transparent; color: light-dark(rgb(0, 0, 0), rgb(255, 255, 255));&quot;&gt;-actualizarAltura(&lt;/span&gt;&lt;span style=&quot;background-color: transparent; color: light-dark(rgb(0, 0, 0), rgb(255, 255, 255));&quot;&gt;Nodo&amp;lt;T&amp;gt; nodo&lt;/span&gt;&lt;span style=&quot;background-color: transparent; color: light-dark(rgb(0, 0, 0), rgb(255, 255, 255));&quot;&gt;):void&lt;/span&gt;&lt;/div&gt;&lt;div&gt;&lt;span style=&quot;background-color: transparent; color: light-dark(rgb(0, 0, 0), rgb(255, 255, 255));&quot;&gt;-getBalanceFactor(&lt;/span&gt;&lt;span style=&quot;background-color: transparent; color: light-dark(rgb(0, 0, 0), rgb(255, 255, 255));&quot;&gt;Nodo&amp;lt;T&amp;gt; nodo&lt;/span&gt;&lt;span style=&quot;background-color: transparent; color: light-dark(rgb(0, 0, 0), rgb(255, 255, 255));&quot;&gt;):int&lt;/span&gt;&lt;/div&gt;&lt;div&gt;&lt;span style=&quot;background-color: transparent; color: light-dark(rgb(0, 0, 0), rgb(255, 255, 255));&quot;&gt;-balancear&lt;/span&gt;&lt;span style=&quot;background-color: transparent; color: light-dark(rgb(0, 0, 0), rgb(255, 255, 255));&quot;&gt;(&lt;/span&gt;&lt;span style=&quot;background-color: transparent; color: light-dark(rgb(0, 0, 0), rgb(255, 255, 255));&quot;&gt;Nodo&amp;lt;T&amp;gt; nodo&lt;/span&gt;&lt;span style=&quot;background-color: transparent; color: light-dark(rgb(0, 0, 0), rgb(255, 255, 255));&quot;&gt;):Nodo&amp;lt;T&amp;gt;&lt;/span&gt;&lt;/div&gt;&lt;div&gt;&lt;span style=&quot;background-color: transparent; color: light-dark(rgb(0, 0, 0), rgb(255, 255, 255));&quot;&gt;-rotarDerecha&lt;/span&gt;&lt;span style=&quot;background-color: transparent;&quot;&gt;(Nodo&amp;lt;T&amp;gt; y):Nodo&amp;lt;T&amp;gt;&lt;/span&gt;&lt;/div&gt;&lt;div&gt;&lt;span style=&quot;background-color: transparent;&quot;&gt;-rotarIzquierda(Nodo&amp;lt;T&amp;gt; x):&lt;/span&gt;&lt;span style=&quot;background-color: transparent; color: light-dark(rgb(0, 0, 0), rgb(255, 255, 255));&quot;&gt;Nodo&amp;lt;T&amp;gt;&lt;/span&gt;&lt;/div&gt;&lt;div&gt;&lt;span style=&quot;background-color: transparent; color: light-dark(rgb(0, 0, 0), rgb(255, 255, 255));&quot;&gt;+inOrder():void&lt;/span&gt;&lt;/div&gt;&lt;div&gt;&lt;span style=&quot;background-color: transparent; color: light-dark(rgb(0, 0, 0), rgb(255, 255, 255));&quot;&gt;-inOrder(Nodo&amp;lt;T&amp;gt; nodo):void&lt;/span&gt;&lt;/div&gt;&lt;div&gt;&lt;span style=&quot;background-color: transparent; color: light-dark(rgb(0, 0, 0), rgb(255, 255, 255));&quot;&gt;&lt;br&gt;&lt;/span&gt;&lt;/div&gt;&lt;div&gt;&lt;br&gt;&lt;/div&gt;" style="text;strokeColor=none;fillColor=none;align=left;verticalAlign=top;spacingLeft=4;spacingRight=4;overflow=hidden;rotatable=0;points=[[0,0.5],[1,0.5]];portConstraint=eastwest;whiteSpace=wrap;html=1;" parent="K6J4-owUTtvEKUNY4Ti0-115" vertex="1">
          <mxGeometry y="49" width="290" height="191" as="geometry" />
        </mxCell>
        <mxCell id="K6J4-owUTtvEKUNY4Ti0-119" value="&amp;lt;&amp;lt;Implements&amp;gt;&amp;gt;&lt;div&gt;ArbolBinarioBusqueda&amp;lt;T extends Comparable&amp;lt;T&amp;gt;&amp;gt;&lt;/div&gt;" style="swimlane;fontStyle=1;align=center;verticalAlign=top;childLayout=stackLayout;horizontal=1;startSize=41;horizontalStack=0;resizeParent=1;resizeParentMax=0;resizeLast=0;collapsible=1;marginBottom=0;whiteSpace=wrap;html=1;" parent="WIyWlLk6GJQsqaUBKTNV-1" vertex="1">
          <mxGeometry x="-495" y="1110" width="560" height="180" as="geometry">
            <mxRectangle x="-400" y="1080" width="320" height="41" as="alternateBounds" />
          </mxGeometry>
        </mxCell>
        <mxCell id="K6J4-owUTtvEKUNY4Ti0-120" value="+raiz:Nodo&amp;lt;t&amp;gt;" style="text;strokeColor=none;fillColor=none;align=left;verticalAlign=top;spacingLeft=4;spacingRight=4;overflow=hidden;rotatable=0;points=[[0,0.5],[1,0.5]];portConstraint=eastwest;whiteSpace=wrap;html=1;" parent="K6J4-owUTtvEKUNY4Ti0-119" vertex="1">
          <mxGeometry y="41" width="560" height="29" as="geometry" />
        </mxCell>
        <mxCell id="K6J4-owUTtvEKUNY4Ti0-121" value="" style="line;strokeWidth=1;fillColor=none;align=left;verticalAlign=middle;spacingTop=-1;spacingLeft=3;spacingRight=3;rotatable=0;labelPosition=right;points=[];portConstraint=eastwest;strokeColor=inherit;" parent="K6J4-owUTtvEKUNY4Ti0-119" vertex="1">
          <mxGeometry y="70" width="560" height="8" as="geometry" />
        </mxCell>
        <mxCell id="K6J4-owUTtvEKUNY4Ti0-122" value="+insertar(T dato):void&lt;div&gt;-insertar(Nodo&amp;lt;T&amp;gt; nodo, T dato):Nodo&amp;lt;T&amp;gt;&lt;/div&gt;&lt;div&gt;+eliminar(T dato): void&lt;/div&gt;&lt;div&gt;-eliminar(&lt;span style=&quot;background-color: transparent; color: light-dark(rgb(0, 0, 0), rgb(255, 255, 255));&quot;&gt;Nodo&amp;lt;T&amp;gt; nodo, T dato&lt;/span&gt;&lt;span style=&quot;background-color: transparent; color: light-dark(rgb(0, 0, 0), rgb(255, 255, 255));&quot;&gt;):Nodo&amp;lt;T&amp;gt;&lt;/span&gt;&lt;/div&gt;&lt;div&gt;&lt;span style=&quot;background-color: transparent; color: light-dark(rgb(0, 0, 0), rgb(255, 255, 255));&quot;&gt;+buscarPorAtributo&amp;nbsp;&lt;/span&gt;&lt;span style=&quot;background-color: transparent;&quot;&gt;(Function&amp;lt;T, Comparable&amp;gt; extractor, Comparable valorBuscado):T&lt;/span&gt;&lt;/div&gt;&lt;div&gt;&lt;span style=&quot;color: light-dark(rgb(0, 0, 0), rgb(255, 255, 255)); background-color: transparent;&quot;&gt;-buscarPorAtributo&amp;nbsp;&lt;/span&gt;&lt;span style=&quot;background-color: transparent;&quot;&gt;(Nodo&amp;lt;T&amp;gt; nodo, Function&amp;lt;T, Comparable&amp;gt; extractor, Comparable valorBuscado):T&lt;/span&gt;&lt;span style=&quot;background-color: transparent;&quot;&gt;&lt;/span&gt;&lt;/div&gt;&lt;div&gt;&lt;span style=&quot;background-color: transparent;&quot;&gt;&lt;br&gt;&lt;/span&gt;&lt;/div&gt;" style="text;strokeColor=none;fillColor=none;align=left;verticalAlign=top;spacingLeft=4;spacingRight=4;overflow=hidden;rotatable=0;points=[[0,0.5],[1,0.5]];portConstraint=eastwest;whiteSpace=wrap;html=1;" parent="K6J4-owUTtvEKUNY4Ti0-119" vertex="1">
          <mxGeometry y="78" width="560" height="102" as="geometry" />
        </mxCell>
        <mxCell id="K6J4-owUTtvEKUNY4Ti0-123" value="&amp;lt;&amp;lt;Entity&amp;gt;&amp;gt;&lt;div&gt;Nodo&amp;lt;T&amp;gt;&lt;/div&gt;" style="swimlane;fontStyle=1;align=center;verticalAlign=top;childLayout=stackLayout;horizontal=1;startSize=41;horizontalStack=0;resizeParent=1;resizeParentMax=0;resizeLast=0;collapsible=1;marginBottom=0;whiteSpace=wrap;html=1;" parent="WIyWlLk6GJQsqaUBKTNV-1" vertex="1">
          <mxGeometry x="-335" y="1350" width="290" height="130" as="geometry">
            <mxRectangle x="-275" y="1360" width="100" height="41" as="alternateBounds" />
          </mxGeometry>
        </mxCell>
        <mxCell id="K6J4-owUTtvEKUNY4Ti0-124" value="&lt;div&gt;+dato:T&lt;/div&gt;&lt;div&gt;+der:&lt;span style=&quot;background-color: transparent; color: light-dark(rgb(0, 0, 0), rgb(255, 255, 255));&quot;&gt;Nodo&amp;lt;T&amp;gt;&lt;/span&gt;&lt;span style=&quot;background-color: transparent; color: light-dark(rgb(0, 0, 0), rgb(255, 255, 255));&quot;&gt;&amp;nbsp;&lt;/span&gt;&lt;/div&gt;&lt;div&gt;+izq:&lt;span style=&quot;color: light-dark(rgb(0, 0, 0), rgb(255, 255, 255)); background-color: transparent;&quot;&gt;Nodo&amp;lt;T&amp;gt;&lt;/span&gt;&lt;span style=&quot;background-color: transparent; color: light-dark(rgb(0, 0, 0), rgb(255, 255, 255));&quot;&gt;&lt;/span&gt;&lt;/div&gt;&lt;div&gt;+altura:int&lt;/div&gt;" style="text;strokeColor=none;fillColor=none;align=left;verticalAlign=top;spacingLeft=4;spacingRight=4;overflow=hidden;rotatable=0;points=[[0,0.5],[1,0.5]];portConstraint=eastwest;whiteSpace=wrap;html=1;" parent="K6J4-owUTtvEKUNY4Ti0-123" vertex="1">
          <mxGeometry y="41" width="290" height="59" as="geometry" />
        </mxCell>
        <mxCell id="K6J4-owUTtvEKUNY4Ti0-125" value="" style="line;strokeWidth=1;fillColor=none;align=left;verticalAlign=middle;spacingTop=-1;spacingLeft=3;spacingRight=3;rotatable=0;labelPosition=right;points=[];portConstraint=eastwest;strokeColor=inherit;" parent="K6J4-owUTtvEKUNY4Ti0-123" vertex="1">
          <mxGeometry y="100" width="290" height="8" as="geometry" />
        </mxCell>
        <mxCell id="K6J4-owUTtvEKUNY4Ti0-126" value="+Nodo(T dato)" style="text;strokeColor=none;fillColor=none;align=left;verticalAlign=top;spacingLeft=4;spacingRight=4;overflow=hidden;rotatable=0;points=[[0,0.5],[1,0.5]];portConstraint=eastwest;whiteSpace=wrap;html=1;" parent="K6J4-owUTtvEKUNY4Ti0-123" vertex="1">
          <mxGeometry y="108" width="290" height="22" as="geometry" />
        </mxCell>
        <mxCell id="K6J4-owUTtvEKUNY4Ti0-129" style="edgeStyle=orthogonalEdgeStyle;rounded=0;orthogonalLoop=1;jettySize=auto;html=1;entryX=0.005;entryY=0.214;entryDx=0;entryDy=0;entryPerimeter=0;endArrow=block;endFill=0;" parent="WIyWlLk6GJQsqaUBKTNV-1" source="K6J4-owUTtvEKUNY4Ti0-118" target="K6J4-owUTtvEKUNY4Ti0-122" edge="1">
          <mxGeometry relative="1" as="geometry" />
        </mxCell>
        <mxCell id="K6J4-owUTtvEKUNY4Ti0-130" value="&amp;lt;&amp;lt;Inner Class&amp;gt;&amp;gt;" style="edgeStyle=orthogonalEdgeStyle;rounded=0;orthogonalLoop=1;jettySize=auto;html=1;entryX=0.5;entryY=0;entryDx=0;entryDy=0;endArrow=classic;startFill=0;endFill=1;" parent="WIyWlLk6GJQsqaUBKTNV-1" source="K6J4-owUTtvEKUNY4Ti0-122" target="K6J4-owUTtvEKUNY4Ti0-123" edge="1">
          <mxGeometry relative="1" as="geometry">
            <Array as="points">
              <mxPoint x="-130" y="1270" />
              <mxPoint x="-130" y="1270" />
            </Array>
          </mxGeometry>
        </mxCell>
        <mxCell id="K6J4-owUTtvEKUNY4Ti0-134" value="&amp;lt;&amp;lt;Implements&amp;gt;&amp;gt;&lt;div&gt;ArregloCalificaciones&amp;lt;T&amp;gt;&lt;/div&gt;" style="swimlane;fontStyle=1;align=center;verticalAlign=top;childLayout=stackLayout;horizontal=1;startSize=41;horizontalStack=0;resizeParent=1;resizeParentMax=0;resizeLast=0;collapsible=1;marginBottom=0;whiteSpace=wrap;html=1;" parent="WIyWlLk6GJQsqaUBKTNV-1" vertex="1">
          <mxGeometry x="-1790" y="1110" width="320" height="210" as="geometry">
            <mxRectangle x="-1210" y="1080" width="170" height="41" as="alternateBounds" />
          </mxGeometry>
        </mxCell>
        <mxCell id="K6J4-owUTtvEKUNY4Ti0-135" value="-tam:int&lt;div&gt;-arreglo:T[]&lt;/div&gt;" style="text;strokeColor=none;fillColor=none;align=left;verticalAlign=top;spacingLeft=4;spacingRight=4;overflow=hidden;rotatable=0;points=[[0,0.5],[1,0.5]];portConstraint=eastwest;whiteSpace=wrap;html=1;" parent="K6J4-owUTtvEKUNY4Ti0-134" vertex="1">
          <mxGeometry y="41" width="320" height="39" as="geometry" />
        </mxCell>
        <mxCell id="K6J4-owUTtvEKUNY4Ti0-136" value="" style="line;strokeWidth=1;fillColor=none;align=left;verticalAlign=middle;spacingTop=-1;spacingLeft=3;spacingRight=3;rotatable=0;labelPosition=right;points=[];portConstraint=eastwest;strokeColor=inherit;" parent="K6J4-owUTtvEKUNY4Ti0-134" vertex="1">
          <mxGeometry y="80" width="320" height="8" as="geometry" />
        </mxCell>
        <mxCell id="K6J4-owUTtvEKUNY4Ti0-137" value="&lt;div&gt;&lt;span style=&quot;background-color: transparent;&quot;&gt;+ArregloCalificaciones(int tamInicial)&lt;/span&gt;&lt;/div&gt;&lt;div&gt;&lt;span style=&quot;background-color: transparent;&quot;&gt;+getTam():int&lt;/span&gt;&lt;/div&gt;&lt;div&gt;&lt;span style=&quot;background-color: transparent;&quot;&gt;+&lt;/span&gt;&lt;span style=&quot;background-color: transparent;&quot;&gt;agregarElemento(T elemento):void&lt;/span&gt;&lt;/div&gt;&lt;div&gt;&lt;span style=&quot;background-color: transparent;&quot;&gt;+&lt;/span&gt;&lt;span style=&quot;background-color: transparent;&quot;&gt;eliminarElemento(int pos):void&lt;/span&gt;&lt;/div&gt;&lt;div&gt;&lt;span style=&quot;background-color: transparent;&quot;&gt;+modificarElemento(T elemento, T nuevo):boolean&lt;/span&gt;&lt;/div&gt;&lt;div&gt;&lt;span style=&quot;background-color: transparent;&quot;&gt;+obtenerElemento(int index):T&lt;/span&gt;&lt;/div&gt;&lt;div&gt;&lt;span style=&quot;background-color: transparent;&quot;&gt;+imprimir():void&lt;/span&gt;&lt;/div&gt;" style="text;strokeColor=none;fillColor=none;align=left;verticalAlign=top;spacingLeft=4;spacingRight=4;overflow=hidden;rotatable=0;points=[[0,0.5],[1,0.5]];portConstraint=eastwest;whiteSpace=wrap;html=1;" parent="K6J4-owUTtvEKUNY4Ti0-134" vertex="1">
          <mxGeometry y="88" width="320" height="122" as="geometry" />
        </mxCell>
        <mxCell id="K6J4-owUTtvEKUNY4Ti0-138" value="&amp;lt;&amp;lt;Implements&amp;gt;&amp;gt;&lt;div&gt;Cola&amp;lt;T&amp;gt;&lt;/div&gt;" style="swimlane;fontStyle=1;align=center;verticalAlign=top;childLayout=stackLayout;horizontal=1;startSize=41;horizontalStack=0;resizeParent=1;resizeParentMax=0;resizeLast=0;collapsible=1;marginBottom=0;whiteSpace=wrap;html=1;" parent="WIyWlLk6GJQsqaUBKTNV-1" vertex="1">
          <mxGeometry x="1555" y="1284" width="320" height="160" as="geometry">
            <mxRectangle x="1710" y="1284" width="130" height="41" as="alternateBounds" />
          </mxGeometry>
        </mxCell>
        <mxCell id="K6J4-owUTtvEKUNY4Ti0-139" value="-p:NodoSimple&amp;lt;T&amp;gt;" style="text;strokeColor=none;fillColor=none;align=left;verticalAlign=top;spacingLeft=4;spacingRight=4;overflow=hidden;rotatable=0;points=[[0,0.5],[1,0.5]];portConstraint=eastwest;whiteSpace=wrap;html=1;" parent="K6J4-owUTtvEKUNY4Ti0-138" vertex="1">
          <mxGeometry y="41" width="320" height="29" as="geometry" />
        </mxCell>
        <mxCell id="K6J4-owUTtvEKUNY4Ti0-140" value="" style="line;strokeWidth=1;fillColor=none;align=left;verticalAlign=middle;spacingTop=-1;spacingLeft=3;spacingRight=3;rotatable=0;labelPosition=right;points=[];portConstraint=eastwest;strokeColor=inherit;" parent="K6J4-owUTtvEKUNY4Ti0-138" vertex="1">
          <mxGeometry y="70" width="320" height="8" as="geometry" />
        </mxCell>
        <mxCell id="K6J4-owUTtvEKUNY4Ti0-141" value="+cola()&lt;div&gt;+enqueue(T o):void&lt;/div&gt;&lt;div&gt;+dequeue():T&lt;/div&gt;&lt;div&gt;+peek():T&lt;/div&gt;&lt;div&gt;+vacia():boolean&lt;/div&gt;" style="text;strokeColor=none;fillColor=none;align=left;verticalAlign=top;spacingLeft=4;spacingRight=4;overflow=hidden;rotatable=0;points=[[0,0.5],[1,0.5]];portConstraint=eastwest;whiteSpace=wrap;html=1;" parent="K6J4-owUTtvEKUNY4Ti0-138" vertex="1">
          <mxGeometry y="78" width="320" height="82" as="geometry" />
        </mxCell>
        <mxCell id="K6J4-owUTtvEKUNY4Ti0-142" value="&amp;lt;&amp;lt;Implements&amp;gt;&amp;gt;&lt;div&gt;ListaEnlazada&amp;lt;T&amp;gt;&lt;/div&gt;" style="swimlane;fontStyle=1;align=center;verticalAlign=top;childLayout=stackLayout;horizontal=1;startSize=41;horizontalStack=0;resizeParent=1;resizeParentMax=0;resizeLast=0;collapsible=1;marginBottom=0;whiteSpace=wrap;html=1;" parent="WIyWlLk6GJQsqaUBKTNV-1" vertex="1">
          <mxGeometry x="1200" y="1140.5" width="320" height="220" as="geometry">
            <mxRectangle x="1230" y="1128" width="140" height="41" as="alternateBounds" />
          </mxGeometry>
        </mxCell>
        <mxCell id="K6J4-owUTtvEKUNY4Ti0-143" value="-p:NodoSimple&amp;lt;T&amp;gt;" style="text;strokeColor=none;fillColor=none;align=left;verticalAlign=top;spacingLeft=4;spacingRight=4;overflow=hidden;rotatable=0;points=[[0,0.5],[1,0.5]];portConstraint=eastwest;whiteSpace=wrap;html=1;" parent="K6J4-owUTtvEKUNY4Ti0-142" vertex="1">
          <mxGeometry y="41" width="320" height="29" as="geometry" />
        </mxCell>
        <mxCell id="K6J4-owUTtvEKUNY4Ti0-144" value="" style="line;strokeWidth=1;fillColor=none;align=left;verticalAlign=middle;spacingTop=-1;spacingLeft=3;spacingRight=3;rotatable=0;labelPosition=right;points=[];portConstraint=eastwest;strokeColor=inherit;" parent="K6J4-owUTtvEKUNY4Ti0-142" vertex="1">
          <mxGeometry y="70" width="320" height="8" as="geometry" />
        </mxCell>
        <mxCell id="K6J4-owUTtvEKUNY4Ti0-145" value="+ListaEnlazada()&lt;div&gt;+set(T o, int i):void&lt;/div&gt;&lt;div&gt;+get(int i):T&lt;/div&gt;&lt;div&gt;+add(T o):void&lt;/div&gt;&lt;div&gt;+remove(int i):void&amp;nbsp;&lt;/div&gt;&lt;div&gt;+remove(T o):boolean&lt;/div&gt;&lt;div&gt;+indexOf(T o):int&lt;/div&gt;&lt;div&gt;+clear():void&lt;/div&gt;&lt;div&gt;+size():int&lt;/div&gt;" style="text;strokeColor=none;fillColor=none;align=left;verticalAlign=top;spacingLeft=4;spacingRight=4;overflow=hidden;rotatable=0;points=[[0,0.5],[1,0.5]];portConstraint=eastwest;whiteSpace=wrap;html=1;" parent="K6J4-owUTtvEKUNY4Ti0-142" vertex="1">
          <mxGeometry y="78" width="320" height="142" as="geometry" />
        </mxCell>
        <mxCell id="K6J4-owUTtvEKUNY4Ti0-146" value="&amp;lt;&amp;lt;Entity&amp;gt;&amp;gt;&lt;div&gt;NodoSimple&amp;lt;T&amp;gt;&lt;/div&gt;" style="swimlane;fontStyle=1;align=center;verticalAlign=top;childLayout=stackLayout;horizontal=1;startSize=41;horizontalStack=0;resizeParent=1;resizeParentMax=0;resizeLast=0;collapsible=1;marginBottom=0;whiteSpace=wrap;html=1;" parent="WIyWlLk6GJQsqaUBKTNV-1" vertex="1">
          <mxGeometry x="990" y="1591" width="290" height="180" as="geometry">
            <mxRectangle x="920" y="1591" width="130" height="41" as="alternateBounds" />
          </mxGeometry>
        </mxCell>
        <mxCell id="K6J4-owUTtvEKUNY4Ti0-147" value="&lt;div&gt;-dato:T&lt;/div&gt;&lt;div&gt;-sig:NodoSimple&amp;lt;T&amp;gt;&lt;/div&gt;" style="text;strokeColor=none;fillColor=none;align=left;verticalAlign=top;spacingLeft=4;spacingRight=4;overflow=hidden;rotatable=0;points=[[0,0.5],[1,0.5]];portConstraint=eastwest;whiteSpace=wrap;html=1;" parent="K6J4-owUTtvEKUNY4Ti0-146" vertex="1">
          <mxGeometry y="41" width="290" height="39" as="geometry" />
        </mxCell>
        <mxCell id="K6J4-owUTtvEKUNY4Ti0-148" value="" style="line;strokeWidth=1;fillColor=none;align=left;verticalAlign=middle;spacingTop=-1;spacingLeft=3;spacingRight=3;rotatable=0;labelPosition=right;points=[];portConstraint=eastwest;strokeColor=inherit;" parent="K6J4-owUTtvEKUNY4Ti0-146" vertex="1">
          <mxGeometry y="80" width="290" height="8" as="geometry" />
        </mxCell>
        <mxCell id="K6J4-owUTtvEKUNY4Ti0-149" value="+NodoSimple(T dato)&lt;div&gt;+getDato():T&lt;/div&gt;&lt;div&gt;+setDato(T dato):void&lt;/div&gt;&lt;div&gt;&lt;div&gt;+getSig():&lt;span style=&quot;background-color: transparent; color: light-dark(rgb(0, 0, 0), rgb(255, 255, 255));&quot;&gt;NodoSimple&amp;lt;T&amp;gt;&lt;/span&gt;&lt;/div&gt;&lt;div&gt;+setSig(NodoSimple&amp;lt;T&amp;gt; sig):void&lt;/div&gt;&lt;/div&gt;" style="text;strokeColor=none;fillColor=none;align=left;verticalAlign=top;spacingLeft=4;spacingRight=4;overflow=hidden;rotatable=0;points=[[0,0.5],[1,0.5]];portConstraint=eastwest;whiteSpace=wrap;html=1;" parent="K6J4-owUTtvEKUNY4Ti0-146" vertex="1">
          <mxGeometry y="88" width="290" height="92" as="geometry" />
        </mxCell>
        <mxCell id="K6J4-owUTtvEKUNY4Ti0-150" value="&amp;lt;&amp;lt;Inner Class&amp;gt;&amp;gt;" style="edgeStyle=orthogonalEdgeStyle;rounded=0;orthogonalLoop=1;jettySize=auto;html=1;endArrow=classic;endFill=1;exitX=0.496;exitY=1.002;exitDx=0;exitDy=0;exitPerimeter=0;entryX=0.411;entryY=0.008;entryDx=0;entryDy=0;entryPerimeter=0;" parent="WIyWlLk6GJQsqaUBKTNV-1" source="K6J4-owUTtvEKUNY4Ti0-145" target="K6J4-owUTtvEKUNY4Ti0-146" edge="1">
          <mxGeometry x="-0.426" y="-1" relative="1" as="geometry">
            <mxPoint x="1070" y="1540" as="targetPoint" />
            <Array as="points">
              <mxPoint x="1359" y="1520" />
              <mxPoint x="1110" y="1520" />
              <mxPoint x="1110" y="1592" />
            </Array>
            <mxPoint as="offset" />
          </mxGeometry>
        </mxCell>
        <mxCell id="K6J4-owUTtvEKUNY4Ti0-152" style="edgeStyle=orthogonalEdgeStyle;rounded=0;orthogonalLoop=1;jettySize=auto;html=1;endArrow=block;endFill=0;entryX=1.003;entryY=0.098;entryDx=0;entryDy=0;entryPerimeter=0;" parent="WIyWlLk6GJQsqaUBKTNV-1" source="K6J4-owUTtvEKUNY4Ti0-138" target="K6J4-owUTtvEKUNY4Ti0-142" edge="1">
          <mxGeometry relative="1" as="geometry">
            <mxPoint x="1370" y="1140" as="targetPoint" />
            <Array as="points">
              <mxPoint x="1710" y="1162" />
            </Array>
          </mxGeometry>
        </mxCell>
        <mxCell id="K6J4-owUTtvEKUNY4Ti0-153" style="edgeStyle=orthogonalEdgeStyle;rounded=0;orthogonalLoop=1;jettySize=auto;html=1;entryX=1.002;entryY=0.132;entryDx=0;entryDy=0;entryPerimeter=0;dashed=1;endArrow=open;endFill=0;exitX=-0.008;exitY=0.171;exitDx=0;exitDy=0;exitPerimeter=0;" parent="WIyWlLk6GJQsqaUBKTNV-1" source="K6J4-owUTtvEKUNY4Ti0-141" target="K6J4-owUTtvEKUNY4Ti0-146" edge="1">
          <mxGeometry relative="1" as="geometry">
            <Array as="points">
              <mxPoint x="1540" y="1376" />
              <mxPoint x="1540" y="1615" />
            </Array>
          </mxGeometry>
        </mxCell>
        <mxCell id="K6J4-owUTtvEKUNY4Ti0-154" value="&amp;lt;&amp;lt;Entity&amp;gt;&amp;gt;&lt;div&gt;Entrada&amp;lt;K,V&amp;gt;&lt;/div&gt;" style="swimlane;fontStyle=1;align=center;verticalAlign=top;childLayout=stackLayout;horizontal=1;startSize=41;horizontalStack=0;resizeParent=1;resizeParentMax=0;resizeLast=0;collapsible=1;marginBottom=0;whiteSpace=wrap;html=1;" parent="WIyWlLk6GJQsqaUBKTNV-1" vertex="1">
          <mxGeometry x="670" y="1591" width="290" height="130" as="geometry">
            <mxRectangle x="485" y="1620" width="120" height="41" as="alternateBounds" />
          </mxGeometry>
        </mxCell>
        <mxCell id="K6J4-owUTtvEKUNY4Ti0-155" value="-llave:final K&lt;div&gt;-valor:V&lt;/div&gt;" style="text;strokeColor=none;fillColor=none;align=left;verticalAlign=top;spacingLeft=4;spacingRight=4;overflow=hidden;rotatable=0;points=[[0,0.5],[1,0.5]];portConstraint=eastwest;whiteSpace=wrap;html=1;" parent="K6J4-owUTtvEKUNY4Ti0-154" vertex="1">
          <mxGeometry y="41" width="290" height="39" as="geometry" />
        </mxCell>
        <mxCell id="K6J4-owUTtvEKUNY4Ti0-156" value="" style="line;strokeWidth=1;fillColor=none;align=left;verticalAlign=middle;spacingTop=-1;spacingLeft=3;spacingRight=3;rotatable=0;labelPosition=right;points=[];portConstraint=eastwest;strokeColor=inherit;" parent="K6J4-owUTtvEKUNY4Ti0-154" vertex="1">
          <mxGeometry y="80" width="290" height="8" as="geometry" />
        </mxCell>
        <mxCell id="K6J4-owUTtvEKUNY4Ti0-157" value="+Entrada(K llave, V valor)&lt;div&gt;+toString():String&lt;/div&gt;" style="text;strokeColor=none;fillColor=none;align=left;verticalAlign=top;spacingLeft=4;spacingRight=4;overflow=hidden;rotatable=0;points=[[0,0.5],[1,0.5]];portConstraint=eastwest;whiteSpace=wrap;html=1;" parent="K6J4-owUTtvEKUNY4Ti0-154" vertex="1">
          <mxGeometry y="88" width="290" height="42" as="geometry" />
        </mxCell>
        <mxCell id="K6J4-owUTtvEKUNY4Ti0-158" value="&amp;lt;&amp;lt;Implements&amp;gt;&amp;gt;&lt;div&gt;Diccionario&amp;lt;K,V&amp;gt;&lt;/div&gt;" style="swimlane;fontStyle=1;align=center;verticalAlign=top;childLayout=stackLayout;horizontal=1;startSize=41;horizontalStack=0;resizeParent=1;resizeParentMax=0;resizeLast=0;collapsible=1;marginBottom=0;whiteSpace=wrap;html=1;" parent="WIyWlLk6GJQsqaUBKTNV-1" vertex="1">
          <mxGeometry x="120" y="1110" width="510" height="460" as="geometry">
            <mxRectangle x="390" y="1100" width="130" height="41" as="alternateBounds" />
          </mxGeometry>
        </mxCell>
        <mxCell id="K6J4-owUTtvEKUNY4Ti0-159" value="-tablaHash[]:final ListaEnlazada&amp;lt;Entrada&amp;lt;K, V&amp;gt;&amp;gt;&lt;div&gt;-nEntradas:int&lt;/div&gt;&lt;div&gt;-tamTablaHash:final int&lt;/div&gt;" style="text;strokeColor=none;fillColor=none;align=left;verticalAlign=top;spacingLeft=4;spacingRight=4;overflow=hidden;rotatable=0;points=[[0,0.5],[1,0.5]];portConstraint=eastwest;whiteSpace=wrap;html=1;" parent="K6J4-owUTtvEKUNY4Ti0-158" vertex="1">
          <mxGeometry y="41" width="510" height="59" as="geometry" />
        </mxCell>
        <mxCell id="K6J4-owUTtvEKUNY4Ti0-160" value="" style="line;strokeWidth=1;fillColor=none;align=left;verticalAlign=middle;spacingTop=-1;spacingLeft=3;spacingRight=3;rotatable=0;labelPosition=right;points=[];portConstraint=eastwest;strokeColor=inherit;" parent="K6J4-owUTtvEKUNY4Ti0-158" vertex="1">
          <mxGeometry y="100" width="510" height="8" as="geometry" />
        </mxCell>
        <mxCell id="K6J4-owUTtvEKUNY4Ti0-161" value="+Diccionario(ListaEnlazada&amp;lt;Entrada&amp;lt;K, V&amp;gt;&amp;gt;[] tablaHash, int tamTablaHash)&lt;div&gt;-getIndexHashTable(K llave):int&lt;/div&gt;&lt;div&gt;+get(K llave):V&lt;/div&gt;&lt;div&gt;-get(ListaEnlazada&amp;lt;Entrada&amp;lt;K, V&amp;gt;&amp;gt; balde, K llave, int i):V&lt;/div&gt;&lt;div&gt;+contains(K llave):boolean&lt;/div&gt;&lt;div&gt;-contains(ListaEnlazada&amp;lt;Entrada&amp;lt;K, V&amp;gt;&amp;gt; balde, K llave, int i):boolean&lt;/div&gt;&lt;div&gt;+clear():void&lt;/div&gt;&lt;div&gt;-clear(int i):void&lt;/div&gt;&lt;div&gt;+keys():ListaEnlazada&amp;lt;K&amp;gt;&amp;nbsp;&lt;/div&gt;&lt;div&gt;-keys(int i, ListaEnlazada&amp;lt;K&amp;gt; resultado):void&lt;/div&gt;&lt;div&gt;-keysInBucket(ListaEnlazada&amp;lt;Entrada&amp;lt;K, V&amp;gt;&amp;gt; balde, int j, ListaEnlazada&amp;lt;K&amp;gt; resultado):void&lt;/div&gt;&lt;div&gt;+values():ListaEnlazada&amp;lt;V&amp;gt;&lt;/div&gt;&lt;div&gt;-values(int i, ListaEnlazada&amp;lt;V&amp;gt; resultado):void&lt;/div&gt;&lt;div&gt;-valuesInBucket(ListaEnlazada&amp;lt;Entrada&amp;lt;K, V&amp;gt;&amp;gt; balde, int j, ListaEnlazada&amp;lt;V&amp;gt; resultado)void&lt;/div&gt;&lt;div&gt;+put(K llave, V valor):V&lt;/div&gt;&lt;div&gt;-put(ListaEnlazada&amp;lt;Entrada&amp;lt;K, V&amp;gt;&amp;gt; balde, K llave, V valor, int i):V&lt;/div&gt;&lt;div&gt;+remove(K llave):V&lt;/div&gt;&lt;div&gt;-remove(ListaEnlazada&amp;lt;Entrada&amp;lt;K, V&amp;gt;&amp;gt; balde, K llave, int i):V&lt;/div&gt;&lt;div&gt;+size():int&lt;/div&gt;&lt;div&gt;+empty():boolean&lt;/div&gt;&lt;div&gt;+imprimir():void&lt;/div&gt;&lt;div&gt;-imprimir(int i):void&lt;/div&gt;&lt;div&gt;-imprimirBalde(ListaEnlazada&amp;lt;Entrada&amp;lt;K, V&amp;gt;&amp;gt; balde, int j):void&lt;/div&gt;" style="text;strokeColor=none;fillColor=none;align=left;verticalAlign=top;spacingLeft=4;spacingRight=4;overflow=hidden;rotatable=0;points=[[0,0.5],[1,0.5]];portConstraint=eastwest;whiteSpace=wrap;html=1;" parent="K6J4-owUTtvEKUNY4Ti0-158" vertex="1">
          <mxGeometry y="108" width="510" height="352" as="geometry" />
        </mxCell>
        <mxCell id="K6J4-owUTtvEKUNY4Ti0-162" value="&amp;lt;&amp;lt;Inner Class&amp;gt;&amp;gt;" style="edgeStyle=orthogonalEdgeStyle;rounded=0;orthogonalLoop=1;jettySize=auto;html=1;entryX=0.5;entryY=0;entryDx=0;entryDy=0;" parent="WIyWlLk6GJQsqaUBKTNV-1" source="K6J4-owUTtvEKUNY4Ti0-161" target="K6J4-owUTtvEKUNY4Ti0-154" edge="1">
          <mxGeometry relative="1" as="geometry">
            <Array as="points">
              <mxPoint x="815" y="1410" />
            </Array>
          </mxGeometry>
        </mxCell>
        <mxCell id="K6J4-owUTtvEKUNY4Ti0-164" style="edgeStyle=orthogonalEdgeStyle;rounded=0;orthogonalLoop=1;jettySize=auto;html=1;entryX=0.157;entryY=0.004;entryDx=0;entryDy=0;entryPerimeter=0;endArrow=open;endFill=0;dashed=1;" parent="WIyWlLk6GJQsqaUBKTNV-1" source="K6J4-owUTtvEKUNY4Ti0-158" target="K6J4-owUTtvEKUNY4Ti0-142" edge="1">
          <mxGeometry relative="1" as="geometry">
            <Array as="points">
              <mxPoint x="680" y="1340" />
              <mxPoint x="680" y="1090" />
              <mxPoint x="1250" y="1090" />
              <mxPoint x="1250" y="1141" />
            </Array>
          </mxGeometry>
        </mxCell>
        <mxCell id="K6J4-owUTtvEKUNY4Ti0-165" value="&amp;lt;&amp;lt;Implements&amp;gt;&amp;gt;&lt;div&gt;ListaDobleCircular&amp;lt;T&amp;gt;&lt;/div&gt;" style="swimlane;fontStyle=1;align=center;verticalAlign=top;childLayout=stackLayout;horizontal=1;startSize=41;horizontalStack=0;resizeParent=1;resizeParentMax=0;resizeLast=0;collapsible=1;marginBottom=0;whiteSpace=wrap;html=1;" parent="WIyWlLk6GJQsqaUBKTNV-1" vertex="1">
          <mxGeometry x="-440" y="1630" width="320" height="210" as="geometry">
            <mxRectangle x="-15" y="1591" width="160" height="41" as="alternateBounds" />
          </mxGeometry>
        </mxCell>
        <mxCell id="K6J4-owUTtvEKUNY4Ti0-166" value="&lt;div&gt;-inicio:Nodo&amp;lt;T&amp;gt;&amp;nbsp;&lt;/div&gt;&lt;div&gt;-fin:Nodo&amp;lt;T&amp;gt;&lt;/div&gt;&lt;div&gt;-tamaño:int&lt;/div&gt;" style="text;strokeColor=none;fillColor=none;align=left;verticalAlign=top;spacingLeft=4;spacingRight=4;overflow=hidden;rotatable=0;points=[[0,0.5],[1,0.5]];portConstraint=eastwest;whiteSpace=wrap;html=1;" parent="K6J4-owUTtvEKUNY4Ti0-165" vertex="1">
          <mxGeometry y="41" width="320" height="49" as="geometry" />
        </mxCell>
        <mxCell id="K6J4-owUTtvEKUNY4Ti0-167" value="" style="line;strokeWidth=1;fillColor=none;align=left;verticalAlign=middle;spacingTop=-1;spacingLeft=3;spacingRight=3;rotatable=0;labelPosition=right;points=[];portConstraint=eastwest;strokeColor=inherit;" parent="K6J4-owUTtvEKUNY4Ti0-165" vertex="1">
          <mxGeometry y="90" width="320" height="8" as="geometry" />
        </mxCell>
        <mxCell id="K6J4-owUTtvEKUNY4Ti0-168" value="+agregar(T dato):void&lt;div&gt;+eliminarPrimero():void&lt;/div&gt;&lt;div&gt;+imprimir():void&amp;nbsp;&lt;/div&gt;&lt;div&gt;+imprimirReversa():void&lt;/div&gt;&lt;div&gt;+imprimirCant(int cantidad):void&lt;/div&gt;&lt;div&gt;+getTamaño():int&lt;/div&gt;&lt;div&gt;+estaVacio()boolean&lt;/div&gt;" style="text;strokeColor=none;fillColor=none;align=left;verticalAlign=top;spacingLeft=4;spacingRight=4;overflow=hidden;rotatable=0;points=[[0,0.5],[1,0.5]];portConstraint=eastwest;whiteSpace=wrap;html=1;" parent="K6J4-owUTtvEKUNY4Ti0-165" vertex="1">
          <mxGeometry y="98" width="320" height="112" as="geometry" />
        </mxCell>
        <mxCell id="K6J4-owUTtvEKUNY4Ti0-169" value="&amp;lt;&amp;lt;Entity&amp;gt;&amp;gt;&lt;div&gt;Nodo&amp;lt;T&amp;gt;&lt;/div&gt;" style="swimlane;fontStyle=1;align=center;verticalAlign=top;childLayout=stackLayout;horizontal=1;startSize=41;horizontalStack=0;resizeParent=1;resizeParentMax=0;resizeLast=0;collapsible=1;marginBottom=0;whiteSpace=wrap;html=1;" parent="WIyWlLk6GJQsqaUBKTNV-1" vertex="1">
          <mxGeometry x="-425" y="1939" width="290" height="220" as="geometry">
            <mxRectangle x="95" y="1890" width="100" height="41" as="alternateBounds" />
          </mxGeometry>
        </mxCell>
        <mxCell id="K6J4-owUTtvEKUNY4Ti0-170" value="&lt;div&gt;-dato:T&lt;/div&gt;&lt;div&gt;-sig:Nodo&amp;lt;T&amp;gt;&lt;/div&gt;&lt;div&gt;-ant:Nodo&amp;lt;T&amp;gt;&lt;/div&gt;" style="text;strokeColor=none;fillColor=none;align=left;verticalAlign=top;spacingLeft=4;spacingRight=4;overflow=hidden;rotatable=0;points=[[0,0.5],[1,0.5]];portConstraint=eastwest;whiteSpace=wrap;html=1;" parent="K6J4-owUTtvEKUNY4Ti0-169" vertex="1">
          <mxGeometry y="41" width="290" height="49" as="geometry" />
        </mxCell>
        <mxCell id="K6J4-owUTtvEKUNY4Ti0-171" value="" style="line;strokeWidth=1;fillColor=none;align=left;verticalAlign=middle;spacingTop=-1;spacingLeft=3;spacingRight=3;rotatable=0;labelPosition=right;points=[];portConstraint=eastwest;strokeColor=inherit;" parent="K6J4-owUTtvEKUNY4Ti0-169" vertex="1">
          <mxGeometry y="90" width="290" height="8" as="geometry" />
        </mxCell>
        <mxCell id="K6J4-owUTtvEKUNY4Ti0-172" value="+Nodo(T dato)&lt;div&gt;+getDato():T&lt;/div&gt;&lt;div&gt;+setDato(T dato):void&lt;/div&gt;&lt;div&gt;&lt;div&gt;+getSig():&lt;span style=&quot;background-color: transparent; color: light-dark(rgb(0, 0, 0), rgb(255, 255, 255));&quot;&gt;Nodo&amp;lt;T&amp;gt;&lt;/span&gt;&lt;/div&gt;&lt;div&gt;+setSig(Nodo&amp;lt;T&amp;gt; sig):void&lt;/div&gt;&lt;/div&gt;&lt;div&gt;&lt;div&gt;+getAnt():&lt;span style=&quot;background-color: transparent; color: light-dark(rgb(0, 0, 0), rgb(255, 255, 255));&quot;&gt;Nodo&amp;lt;T&amp;gt;&lt;/span&gt;&lt;/div&gt;&lt;div&gt;+setAnt(Nodo&amp;lt;T&amp;gt; ant):void&lt;/div&gt;&lt;/div&gt;" style="text;strokeColor=none;fillColor=none;align=left;verticalAlign=top;spacingLeft=4;spacingRight=4;overflow=hidden;rotatable=0;points=[[0,0.5],[1,0.5]];portConstraint=eastwest;whiteSpace=wrap;html=1;" parent="K6J4-owUTtvEKUNY4Ti0-169" vertex="1">
          <mxGeometry y="98" width="290" height="122" as="geometry" />
        </mxCell>
        <mxCell id="K6J4-owUTtvEKUNY4Ti0-173" value="&amp;lt;&amp;lt;Inner Class&amp;gt;&amp;gt;" style="edgeStyle=orthogonalEdgeStyle;rounded=0;orthogonalLoop=1;jettySize=auto;html=1;entryX=0.5;entryY=1;entryDx=0;entryDy=0;entryPerimeter=0;startArrow=classic;startFill=1;endArrow=none;" parent="WIyWlLk6GJQsqaUBKTNV-1" source="K6J4-owUTtvEKUNY4Ti0-169" target="K6J4-owUTtvEKUNY4Ti0-168" edge="1">
          <mxGeometry relative="1" as="geometry" />
        </mxCell>
        <mxCell id="K6J4-owUTtvEKUNY4Ti0-174" value="&amp;lt;&amp;lt;Entity&amp;gt;&amp;gt;&lt;div&gt;Nodo&amp;lt;T&amp;gt;&lt;/div&gt;" style="swimlane;fontStyle=1;align=center;verticalAlign=top;childLayout=stackLayout;horizontal=1;startSize=41;horizontalStack=0;resizeParent=1;resizeParentMax=0;resizeLast=0;collapsible=1;marginBottom=0;whiteSpace=wrap;html=1;" parent="WIyWlLk6GJQsqaUBKTNV-1" vertex="1">
          <mxGeometry x="-835" y="2050" width="290" height="180" as="geometry">
            <mxRectangle x="-480" y="1940" width="100" height="41" as="alternateBounds" />
          </mxGeometry>
        </mxCell>
        <mxCell id="K6J4-owUTtvEKUNY4Ti0-175" value="&lt;div&gt;-dato:T&lt;/div&gt;&lt;div&gt;-sig:Nodo&amp;lt;T&amp;gt;&lt;/div&gt;" style="text;strokeColor=none;fillColor=none;align=left;verticalAlign=top;spacingLeft=4;spacingRight=4;overflow=hidden;rotatable=0;points=[[0,0.5],[1,0.5]];portConstraint=eastwest;whiteSpace=wrap;html=1;" parent="K6J4-owUTtvEKUNY4Ti0-174" vertex="1">
          <mxGeometry y="41" width="290" height="39" as="geometry" />
        </mxCell>
        <mxCell id="K6J4-owUTtvEKUNY4Ti0-176" value="" style="line;strokeWidth=1;fillColor=none;align=left;verticalAlign=middle;spacingTop=-1;spacingLeft=3;spacingRight=3;rotatable=0;labelPosition=right;points=[];portConstraint=eastwest;strokeColor=inherit;" parent="K6J4-owUTtvEKUNY4Ti0-174" vertex="1">
          <mxGeometry y="80" width="290" height="8" as="geometry" />
        </mxCell>
        <mxCell id="K6J4-owUTtvEKUNY4Ti0-177" value="+NodoSimple(T dato)&lt;div&gt;+getDato():T&lt;/div&gt;&lt;div&gt;+setDato(T dato):void&lt;/div&gt;&lt;div&gt;&lt;div&gt;+getSig():&lt;span style=&quot;background-color: transparent; color: light-dark(rgb(0, 0, 0), rgb(255, 255, 255));&quot;&gt;Nodo&amp;lt;T&amp;gt;&lt;/span&gt;&lt;/div&gt;&lt;div&gt;+setSig(Nodo&amp;lt;T&amp;gt; sig):void&lt;/div&gt;&lt;/div&gt;" style="text;strokeColor=none;fillColor=none;align=left;verticalAlign=top;spacingLeft=4;spacingRight=4;overflow=hidden;rotatable=0;points=[[0,0.5],[1,0.5]];portConstraint=eastwest;whiteSpace=wrap;html=1;" parent="K6J4-owUTtvEKUNY4Ti0-174" vertex="1">
          <mxGeometry y="88" width="290" height="92" as="geometry" />
        </mxCell>
        <mxCell id="K6J4-owUTtvEKUNY4Ti0-182" value="&amp;lt;&amp;lt;Inner Class&amp;gt;&amp;gt;" style="edgeStyle=orthogonalEdgeStyle;rounded=0;orthogonalLoop=1;jettySize=auto;html=1;entryX=0.5;entryY=0;entryDx=0;entryDy=0;" parent="WIyWlLk6GJQsqaUBKTNV-1" source="K6J4-owUTtvEKUNY4Ti0-178" target="K6J4-owUTtvEKUNY4Ti0-174" edge="1">
          <mxGeometry relative="1" as="geometry" />
        </mxCell>
        <mxCell id="K6J4-owUTtvEKUNY4Ti0-178" value="&amp;lt;&amp;lt;Implements&amp;gt;&amp;gt;&lt;div&gt;ListaEnlazadaCircular&amp;lt;T&amp;gt;&lt;/div&gt;" style="swimlane;fontStyle=1;align=center;verticalAlign=top;childLayout=stackLayout;horizontal=1;startSize=41;horizontalStack=0;resizeParent=1;resizeParentMax=0;resizeLast=0;collapsible=1;marginBottom=0;whiteSpace=wrap;html=1;" parent="WIyWlLk6GJQsqaUBKTNV-1" vertex="1">
          <mxGeometry x="-850" y="1630" width="320" height="230" as="geometry">
            <mxRectangle x="-510" y="1520" width="160" height="41" as="alternateBounds" />
          </mxGeometry>
        </mxCell>
        <mxCell id="K6J4-owUTtvEKUNY4Ti0-179" value="&lt;div&gt;-inicio:Nodo&amp;lt;T&amp;gt;&amp;nbsp;&lt;/div&gt;&lt;div&gt;-fin:Nodo&amp;lt;T&amp;gt;&lt;/div&gt;&lt;div&gt;-tamaño:int&lt;/div&gt;" style="text;strokeColor=none;fillColor=none;align=left;verticalAlign=top;spacingLeft=4;spacingRight=4;overflow=hidden;rotatable=0;points=[[0,0.5],[1,0.5]];portConstraint=eastwest;whiteSpace=wrap;html=1;" parent="K6J4-owUTtvEKUNY4Ti0-178" vertex="1">
          <mxGeometry y="41" width="320" height="49" as="geometry" />
        </mxCell>
        <mxCell id="K6J4-owUTtvEKUNY4Ti0-180" value="" style="line;strokeWidth=1;fillColor=none;align=left;verticalAlign=middle;spacingTop=-1;spacingLeft=3;spacingRight=3;rotatable=0;labelPosition=right;points=[];portConstraint=eastwest;strokeColor=inherit;" parent="K6J4-owUTtvEKUNY4Ti0-178" vertex="1">
          <mxGeometry y="90" width="320" height="8" as="geometry" />
        </mxCell>
        <mxCell id="K6J4-owUTtvEKUNY4Ti0-183" value="+agregar(T dato):void&lt;div&gt;+eliminarPrimero():void&lt;/div&gt;&lt;div&gt;&lt;span style=&quot;background-color: transparent; color: light-dark(rgb(0, 0, 0), rgb(255, 255, 255));&quot;&gt;+Vacio()boolean&lt;/span&gt;&lt;/div&gt;&lt;div&gt;&lt;span style=&quot;background-color: transparent; color: light-dark(rgb(0, 0, 0), rgb(255, 255, 255));&quot;&gt;+getInicio():Nodo&amp;lt;T&amp;gt;&lt;/span&gt;&lt;/div&gt;&lt;div&gt;&lt;span style=&quot;background-color: transparent; color: light-dark(rgb(0, 0, 0), rgb(255, 255, 255));&quot;&gt;+setInicio(Nodo&amp;lt;T&amp;gt; inicio).void&lt;/span&gt;&lt;/div&gt;&lt;div&gt;&lt;div&gt;&lt;span style=&quot;background-color: transparent; color: light-dark(rgb(0, 0, 0), rgb(255, 255, 255));&quot;&gt;+getFin():Nodo&amp;lt;T&amp;gt;&lt;/span&gt;&lt;/div&gt;&lt;div&gt;&lt;span style=&quot;background-color: transparent; color: light-dark(rgb(0, 0, 0), rgb(255, 255, 255));&quot;&gt;+setFin(Nodo&amp;lt;T&amp;gt; fin).void&lt;/span&gt;&lt;/div&gt;&lt;/div&gt;&lt;div&gt;&lt;span style=&quot;background-color: transparent; color: light-dark(rgb(0, 0, 0), rgb(255, 255, 255));&quot;&gt;+getTamaño():int&lt;/span&gt;&lt;/div&gt;" style="text;strokeColor=none;fillColor=none;align=left;verticalAlign=top;spacingLeft=4;spacingRight=4;overflow=hidden;rotatable=0;points=[[0,0.5],[1,0.5]];portConstraint=eastwest;whiteSpace=wrap;html=1;" parent="K6J4-owUTtvEKUNY4Ti0-178" vertex="1">
          <mxGeometry y="98" width="320" height="132" as="geometry" />
        </mxCell>
        <mxCell id="K6J4-owUTtvEKUNY4Ti0-184" value="&amp;lt;&amp;lt;Entity&amp;gt;&amp;gt;&lt;div&gt;Nodo&amp;lt;T&amp;gt;&lt;/div&gt;" style="swimlane;fontStyle=1;align=center;verticalAlign=top;childLayout=stackLayout;horizontal=1;startSize=41;horizontalStack=0;resizeParent=1;resizeParentMax=0;resizeLast=0;collapsible=1;marginBottom=0;whiteSpace=wrap;html=1;" parent="WIyWlLk6GJQsqaUBKTNV-1" vertex="1">
          <mxGeometry x="-1275" y="1966" width="290" height="180" as="geometry">
            <mxRectangle x="555" y="2116" width="100" height="41" as="alternateBounds" />
          </mxGeometry>
        </mxCell>
        <mxCell id="K6J4-owUTtvEKUNY4Ti0-185" value="&lt;div&gt;-dato:T&lt;/div&gt;&lt;div&gt;-sig:Nodo&amp;lt;T&amp;gt;&lt;/div&gt;" style="text;strokeColor=none;fillColor=none;align=left;verticalAlign=top;spacingLeft=4;spacingRight=4;overflow=hidden;rotatable=0;points=[[0,0.5],[1,0.5]];portConstraint=eastwest;whiteSpace=wrap;html=1;" parent="K6J4-owUTtvEKUNY4Ti0-184" vertex="1">
          <mxGeometry y="41" width="290" height="39" as="geometry" />
        </mxCell>
        <mxCell id="K6J4-owUTtvEKUNY4Ti0-186" value="" style="line;strokeWidth=1;fillColor=none;align=left;verticalAlign=middle;spacingTop=-1;spacingLeft=3;spacingRight=3;rotatable=0;labelPosition=right;points=[];portConstraint=eastwest;strokeColor=inherit;" parent="K6J4-owUTtvEKUNY4Ti0-184" vertex="1">
          <mxGeometry y="80" width="290" height="8" as="geometry" />
        </mxCell>
        <mxCell id="K6J4-owUTtvEKUNY4Ti0-187" value="+NodoSimple(T dato)&lt;div&gt;+getDato():T&lt;/div&gt;&lt;div&gt;+setDato(T dato):void&lt;/div&gt;&lt;div&gt;&lt;div&gt;+getSig():&lt;span style=&quot;background-color: transparent; color: light-dark(rgb(0, 0, 0), rgb(255, 255, 255));&quot;&gt;Nodo&amp;lt;T&amp;gt;&lt;/span&gt;&lt;/div&gt;&lt;div&gt;+setSig(Nodo&amp;lt;T&amp;gt; sig):void&lt;/div&gt;&lt;/div&gt;" style="text;strokeColor=none;fillColor=none;align=left;verticalAlign=top;spacingLeft=4;spacingRight=4;overflow=hidden;rotatable=0;points=[[0,0.5],[1,0.5]];portConstraint=eastwest;whiteSpace=wrap;html=1;" parent="K6J4-owUTtvEKUNY4Ti0-184" vertex="1">
          <mxGeometry y="88" width="290" height="92" as="geometry" />
        </mxCell>
        <mxCell id="K6J4-owUTtvEKUNY4Ti0-192" value="&amp;lt;&amp;lt;Inne Class&amp;gt;&amp;gt;" style="edgeStyle=orthogonalEdgeStyle;rounded=0;orthogonalLoop=1;jettySize=auto;html=1;entryX=0.5;entryY=0;entryDx=0;entryDy=0;" parent="WIyWlLk6GJQsqaUBKTNV-1" source="K6J4-owUTtvEKUNY4Ti0-188" target="K6J4-owUTtvEKUNY4Ti0-184" edge="1">
          <mxGeometry relative="1" as="geometry" />
        </mxCell>
        <mxCell id="K6J4-owUTtvEKUNY4Ti0-188" value="&amp;lt;&amp;lt;Implements&amp;gt;&amp;gt;&lt;div&gt;ListaEstudiantes&amp;lt;T&amp;gt;&lt;/div&gt;" style="swimlane;fontStyle=1;align=center;verticalAlign=top;childLayout=stackLayout;horizontal=1;startSize=41;horizontalStack=0;resizeParent=1;resizeParentMax=0;resizeLast=0;collapsible=1;marginBottom=0;whiteSpace=wrap;html=1;" parent="WIyWlLk6GJQsqaUBKTNV-1" vertex="1">
          <mxGeometry x="-1290" y="1640" width="320" height="180" as="geometry">
            <mxRectangle x="540" y="1780" width="150" height="41" as="alternateBounds" />
          </mxGeometry>
        </mxCell>
        <mxCell id="K6J4-owUTtvEKUNY4Ti0-189" value="&lt;div&gt;-p:Nodo&amp;lt;T&amp;gt;&amp;nbsp;&lt;/div&gt;&lt;div&gt;-tamaño:int&lt;/div&gt;" style="text;strokeColor=none;fillColor=none;align=left;verticalAlign=top;spacingLeft=4;spacingRight=4;overflow=hidden;rotatable=0;points=[[0,0.5],[1,0.5]];portConstraint=eastwest;whiteSpace=wrap;html=1;" parent="K6J4-owUTtvEKUNY4Ti0-188" vertex="1">
          <mxGeometry y="41" width="320" height="39" as="geometry" />
        </mxCell>
        <mxCell id="K6J4-owUTtvEKUNY4Ti0-190" value="" style="line;strokeWidth=1;fillColor=none;align=left;verticalAlign=middle;spacingTop=-1;spacingLeft=3;spacingRight=3;rotatable=0;labelPosition=right;points=[];portConstraint=eastwest;strokeColor=inherit;" parent="K6J4-owUTtvEKUNY4Ti0-188" vertex="1">
          <mxGeometry y="80" width="320" height="8" as="geometry" />
        </mxCell>
        <mxCell id="K6J4-owUTtvEKUNY4Ti0-191" value="&lt;div&gt;+ListaEstudiantes()&lt;/div&gt;+agregarUltimo(T dato):void&lt;div&gt;+eliminar(T dato):void&lt;/div&gt;&lt;div&gt;+Imprimir():void&lt;/div&gt;&lt;div&gt;&lt;span style=&quot;background-color: transparent; color: light-dark(rgb(0, 0, 0), rgb(255, 255, 255));&quot;&gt;+getTamaño():int&lt;/span&gt;&lt;/div&gt;" style="text;strokeColor=none;fillColor=none;align=left;verticalAlign=top;spacingLeft=4;spacingRight=4;overflow=hidden;rotatable=0;points=[[0,0.5],[1,0.5]];portConstraint=eastwest;whiteSpace=wrap;html=1;" parent="K6J4-owUTtvEKUNY4Ti0-188" vertex="1">
          <mxGeometry y="88" width="320" height="92" as="geometry" />
        </mxCell>
        <mxCell id="K6J4-owUTtvEKUNY4Ti0-197" style="edgeStyle=orthogonalEdgeStyle;rounded=0;orthogonalLoop=1;jettySize=auto;html=1;entryX=0;entryY=0.5;entryDx=0;entryDy=0;endArrow=open;endFill=0;dashed=1;exitX=1;exitY=0.75;exitDx=0;exitDy=0;" parent="WIyWlLk6GJQsqaUBKTNV-1" source="K6J4-owUTtvEKUNY4Ti0-193" target="K6J4-owUTtvEKUNY4Ti0-146" edge="1">
          <mxGeometry relative="1" as="geometry" />
        </mxCell>
        <mxCell id="K6J4-owUTtvEKUNY4Ti0-198" style="edgeStyle=orthogonalEdgeStyle;rounded=0;orthogonalLoop=1;jettySize=auto;html=1;entryX=0;entryY=0.5;entryDx=0;entryDy=0;endArrow=block;endFill=0;" parent="WIyWlLk6GJQsqaUBKTNV-1" source="K6J4-owUTtvEKUNY4Ti0-193" target="K6J4-owUTtvEKUNY4Ti0-142" edge="1">
          <mxGeometry relative="1" as="geometry" />
        </mxCell>
        <mxCell id="K6J4-owUTtvEKUNY4Ti0-193" value="&amp;lt;&amp;lt;Implements&amp;gt;&amp;gt;&lt;div&gt;pila&amp;lt;T&amp;gt;&lt;/div&gt;" style="swimlane;fontStyle=1;align=center;verticalAlign=top;childLayout=stackLayout;horizontal=1;startSize=41;horizontalStack=0;resizeParent=1;resizeParentMax=0;resizeLast=0;collapsible=1;marginBottom=0;whiteSpace=wrap;html=1;" parent="WIyWlLk6GJQsqaUBKTNV-1" vertex="1">
          <mxGeometry x="810" y="1140" width="320" height="180" as="geometry">
            <mxRectangle x="700" y="1110" width="130" height="41" as="alternateBounds" />
          </mxGeometry>
        </mxCell>
        <mxCell id="K6J4-owUTtvEKUNY4Ti0-194" value="&lt;div&gt;-tope:NodoSimple&lt;/div&gt;" style="text;strokeColor=none;fillColor=none;align=left;verticalAlign=top;spacingLeft=4;spacingRight=4;overflow=hidden;rotatable=0;points=[[0,0.5],[1,0.5]];portConstraint=eastwest;whiteSpace=wrap;html=1;" parent="K6J4-owUTtvEKUNY4Ti0-193" vertex="1">
          <mxGeometry y="41" width="320" height="39" as="geometry" />
        </mxCell>
        <mxCell id="K6J4-owUTtvEKUNY4Ti0-195" value="" style="line;strokeWidth=1;fillColor=none;align=left;verticalAlign=middle;spacingTop=-1;spacingLeft=3;spacingRight=3;rotatable=0;labelPosition=right;points=[];portConstraint=eastwest;strokeColor=inherit;" parent="K6J4-owUTtvEKUNY4Ti0-193" vertex="1">
          <mxGeometry y="80" width="320" height="8" as="geometry" />
        </mxCell>
        <mxCell id="K6J4-owUTtvEKUNY4Ti0-196" value="+pila()&lt;div&gt;+push(T o):void&lt;/div&gt;&lt;div&gt;+pop():T&lt;/div&gt;&lt;div&gt;+pekk():T&lt;/div&gt;&lt;div&gt;+vacia():boolean&lt;/div&gt;&lt;div&gt;&lt;br&gt;&lt;/div&gt;" style="text;strokeColor=none;fillColor=none;align=left;verticalAlign=top;spacingLeft=4;spacingRight=4;overflow=hidden;rotatable=0;points=[[0,0.5],[1,0.5]];portConstraint=eastwest;whiteSpace=wrap;html=1;" parent="K6J4-owUTtvEKUNY4Ti0-193" vertex="1">
          <mxGeometry y="88" width="320" height="92" as="geometry" />
        </mxCell>
        <mxCell id="K6J4-owUTtvEKUNY4Ti0-200" style="edgeStyle=orthogonalEdgeStyle;rounded=0;orthogonalLoop=1;jettySize=auto;html=1;dashed=1;endArrow=open;endFill=0;entryX=0.651;entryY=-0.006;entryDx=0;entryDy=0;entryPerimeter=0;" parent="WIyWlLk6GJQsqaUBKTNV-1" source="K6J4-owUTtvEKUNY4Ti0-97" target="K6J4-owUTtvEKUNY4Ti0-119" edge="1">
          <mxGeometry relative="1" as="geometry">
            <mxPoint x="-120" y="1080" as="targetPoint" />
            <Array as="points">
              <mxPoint x="960" y="980" />
              <mxPoint x="-130" y="980" />
              <mxPoint x="-130" y="1109" />
            </Array>
          </mxGeometry>
        </mxCell>
        <mxCell id="K6J4-owUTtvEKUNY4Ti0-202" style="edgeStyle=orthogonalEdgeStyle;rounded=0;orthogonalLoop=1;jettySize=auto;html=1;dashed=1;endArrow=open;endFill=0;" parent="WIyWlLk6GJQsqaUBKTNV-1" source="K6J4-owUTtvEKUNY4Ti0-89" edge="1">
          <mxGeometry relative="1" as="geometry">
            <mxPoint x="-191" y="1113" as="targetPoint" />
            <Array as="points">
              <mxPoint x="-191" y="930" />
              <mxPoint x="-191" y="1113" />
            </Array>
          </mxGeometry>
        </mxCell>
        <mxCell id="K6J4-owUTtvEKUNY4Ti0-204" style="edgeStyle=orthogonalEdgeStyle;rounded=0;orthogonalLoop=1;jettySize=auto;html=1;entryX=0.624;entryY=0.008;entryDx=0;entryDy=0;entryPerimeter=0;endArrow=open;endFill=0;dashed=1;" parent="WIyWlLk6GJQsqaUBKTNV-1" source="K6J4-owUTtvEKUNY4Ti0-102" target="K6J4-owUTtvEKUNY4Ti0-158" edge="1">
          <mxGeometry relative="1" as="geometry">
            <Array as="points">
              <mxPoint x="1653" y="1020" />
              <mxPoint x="438" y="1020" />
            </Array>
          </mxGeometry>
        </mxCell>
        <mxCell id="K6J4-owUTtvEKUNY4Ti0-247" style="edgeStyle=orthogonalEdgeStyle;rounded=0;orthogonalLoop=1;jettySize=auto;html=1;entryX=1;entryY=0.25;entryDx=0;entryDy=0;endArrow=block;endFill=0;dashed=1;" parent="WIyWlLk6GJQsqaUBKTNV-1" source="K6J4-owUTtvEKUNY4Ti0-205" target="K6J4-owUTtvEKUNY4Ti0-243" edge="1">
          <mxGeometry relative="1" as="geometry" />
        </mxCell>
        <mxCell id="K6J4-owUTtvEKUNY4Ti0-205" value="&amp;lt;&amp;lt;Entity&amp;gt;&amp;gt;&lt;div&gt;Estudiantes&lt;/div&gt;" style="swimlane;fontStyle=1;align=center;verticalAlign=top;childLayout=stackLayout;horizontal=1;startSize=41;horizontalStack=0;resizeParent=1;resizeParentMax=0;resizeLast=0;collapsible=1;marginBottom=0;whiteSpace=wrap;html=1;" parent="WIyWlLk6GJQsqaUBKTNV-1" vertex="1">
          <mxGeometry x="-1430" y="320" width="540" height="370" as="geometry">
            <mxRectangle x="-1210" y="1080" width="170" height="41" as="alternateBounds" />
          </mxGeometry>
        </mxCell>
        <mxCell id="K6J4-owUTtvEKUNY4Ti0-206" value="-nombre:String&lt;div&gt;-matricula:String&lt;/div&gt;&lt;div&gt;-telefono:String&lt;/div&gt;&lt;div&gt;-correo:String&lt;/div&gt;&lt;div&gt;-direccion:Direccion&lt;/div&gt;&lt;div&gt;-calificaciones:ArregloCalificaciones&amp;lt;Interger&amp;gt;&lt;/div&gt;&lt;div&gt;&lt;br&gt;&lt;/div&gt;" style="text;strokeColor=none;fillColor=none;align=left;verticalAlign=top;spacingLeft=4;spacingRight=4;overflow=hidden;rotatable=0;points=[[0,0.5],[1,0.5]];portConstraint=eastwest;whiteSpace=wrap;html=1;" parent="K6J4-owUTtvEKUNY4Ti0-205" vertex="1">
          <mxGeometry y="41" width="540" height="99" as="geometry" />
        </mxCell>
        <mxCell id="K6J4-owUTtvEKUNY4Ti0-207" value="" style="line;strokeWidth=1;fillColor=none;align=left;verticalAlign=middle;spacingTop=-1;spacingLeft=3;spacingRight=3;rotatable=0;labelPosition=right;points=[];portConstraint=eastwest;strokeColor=inherit;" parent="K6J4-owUTtvEKUNY4Ti0-205" vertex="1">
          <mxGeometry y="140" width="540" height="8" as="geometry" />
        </mxCell>
        <mxCell id="K6J4-owUTtvEKUNY4Ti0-208" value="+Estudiantes(String matricula, String nombre, String telefono, String correo, Direccion direccion)&lt;div&gt;+compareTo():int&lt;/div&gt;&lt;div&gt;+getMatricula():String&lt;/div&gt;&lt;div&gt;+getNombre():String&lt;/div&gt;&lt;div&gt;+setNombre(String nombre):void&lt;/div&gt;&lt;div&gt;&lt;div&gt;+getTelefono():String&lt;/div&gt;&lt;div&gt;+setTelefono(String Telefono):void&lt;/div&gt;&lt;/div&gt;&lt;div&gt;&lt;div&gt;+getCorreo():String&lt;/div&gt;&lt;div&gt;+setCorreo(String Correo):void&lt;/div&gt;&lt;/div&gt;&lt;div&gt;&lt;div&gt;+getDireccion():Direccion&lt;/div&gt;&lt;div&gt;+setDireccion(Direccion direccion):void&lt;/div&gt;&lt;/div&gt;&lt;div&gt;+&lt;span style=&quot;background-color: transparent; color: light-dark(rgb(0, 0, 0), rgb(255, 255, 255));&quot;&gt;getCalificaciones():&lt;/span&gt;&lt;span style=&quot;background-color: transparent; color: light-dark(rgb(0, 0, 0), rgb(255, 255, 255));&quot;&gt;ArregloCalificaciones&amp;lt;Interger&amp;gt;&lt;/span&gt;&lt;/div&gt;&lt;div&gt;&lt;span style=&quot;background-color: transparent; color: light-dark(rgb(0, 0, 0), rgb(255, 255, 255));&quot;&gt;+setCalificaciones(ArregloCalificacione&amp;lt;Interger&amp;gt; calificaciones&lt;/span&gt;&lt;span style=&quot;background-color: transparent; color: light-dark(rgb(0, 0, 0), rgb(255, 255, 255));&quot;&gt;):void&lt;/span&gt;&lt;/div&gt;" style="text;strokeColor=none;fillColor=none;align=left;verticalAlign=top;spacingLeft=4;spacingRight=4;overflow=hidden;rotatable=0;points=[[0,0.5],[1,0.5]];portConstraint=eastwest;whiteSpace=wrap;html=1;" parent="K6J4-owUTtvEKUNY4Ti0-205" vertex="1">
          <mxGeometry y="148" width="540" height="222" as="geometry" />
        </mxCell>
        <mxCell id="K6J4-owUTtvEKUNY4Ti0-211" style="edgeStyle=orthogonalEdgeStyle;rounded=0;orthogonalLoop=1;jettySize=auto;html=1;entryX=0.426;entryY=1;entryDx=0;entryDy=0;entryPerimeter=0;dashed=1;endArrow=open;endFill=0;" parent="WIyWlLk6GJQsqaUBKTNV-1" source="K6J4-owUTtvEKUNY4Ti0-89" target="K6J4-owUTtvEKUNY4Ti0-208" edge="1">
          <mxGeometry relative="1" as="geometry">
            <Array as="points">
              <mxPoint x="70" y="980" />
              <mxPoint x="-1200" y="980" />
            </Array>
          </mxGeometry>
        </mxCell>
        <mxCell id="K6J4-owUTtvEKUNY4Ti0-212" style="edgeStyle=orthogonalEdgeStyle;rounded=0;orthogonalLoop=1;jettySize=auto;html=1;entryX=0.691;entryY=1.001;entryDx=0;entryDy=0;entryPerimeter=0;endArrow=open;endFill=0;dashed=1;" parent="WIyWlLk6GJQsqaUBKTNV-1" source="K6J4-owUTtvEKUNY4Ti0-81" target="K6J4-owUTtvEKUNY4Ti0-208" edge="1">
          <mxGeometry relative="1" as="geometry" />
        </mxCell>
        <mxCell id="K6J4-owUTtvEKUNY4Ti0-213" style="edgeStyle=orthogonalEdgeStyle;rounded=0;orthogonalLoop=1;jettySize=auto;html=1;entryX=0.213;entryY=1.014;entryDx=0;entryDy=0;entryPerimeter=0;dashed=1;endArrow=open;endFill=0;" parent="WIyWlLk6GJQsqaUBKTNV-1" source="K6J4-owUTtvEKUNY4Ti0-97" target="K6J4-owUTtvEKUNY4Ti0-208" edge="1">
          <mxGeometry relative="1" as="geometry">
            <Array as="points">
              <mxPoint x="1020" y="1010" />
              <mxPoint x="-1315" y="1010" />
            </Array>
          </mxGeometry>
        </mxCell>
        <mxCell id="K6J4-owUTtvEKUNY4Ti0-214" style="edgeStyle=orthogonalEdgeStyle;rounded=0;orthogonalLoop=1;jettySize=auto;html=1;entryX=1;entryY=0.054;entryDx=0;entryDy=0;entryPerimeter=0;endArrow=open;endFill=0;dashed=1;" parent="WIyWlLk6GJQsqaUBKTNV-1" source="K6J4-owUTtvEKUNY4Ti0-9" target="K6J4-owUTtvEKUNY4Ti0-205" edge="1">
          <mxGeometry relative="1" as="geometry" />
        </mxCell>
        <mxCell id="K6J4-owUTtvEKUNY4Ti0-216" style="edgeStyle=orthogonalEdgeStyle;rounded=0;orthogonalLoop=1;jettySize=auto;html=1;entryX=0.404;entryY=0.007;entryDx=0;entryDy=0;entryPerimeter=0;endArrow=open;endFill=0;dashed=1;" parent="WIyWlLk6GJQsqaUBKTNV-1" source="K6J4-owUTtvEKUNY4Ti0-205" target="K6J4-owUTtvEKUNY4Ti0-134" edge="1">
          <mxGeometry relative="1" as="geometry" />
        </mxCell>
        <mxCell id="K6J4-owUTtvEKUNY4Ti0-217" value="&amp;lt;&amp;lt;Entity&amp;gt;&amp;gt;&lt;div&gt;Direccion&lt;/div&gt;" style="swimlane;fontStyle=1;align=center;verticalAlign=top;childLayout=stackLayout;horizontal=1;startSize=41;horizontalStack=0;resizeParent=1;resizeParentMax=0;resizeLast=0;collapsible=1;marginBottom=0;whiteSpace=wrap;html=1;" parent="WIyWlLk6GJQsqaUBKTNV-1" vertex="1">
          <mxGeometry x="-1430" y="50" width="380" height="210" as="geometry">
            <mxRectangle x="555" y="2116" width="100" height="41" as="alternateBounds" />
          </mxGeometry>
        </mxCell>
        <mxCell id="K6J4-owUTtvEKUNY4Ti0-218" value="-calle:String&lt;div&gt;-numero:String&lt;/div&gt;&lt;div&gt;-coloniaString&lt;/div&gt;&lt;div&gt;-ciudad:String&lt;/div&gt;" style="text;strokeColor=none;fillColor=none;align=left;verticalAlign=top;spacingLeft=4;spacingRight=4;overflow=hidden;rotatable=0;points=[[0,0.5],[1,0.5]];portConstraint=eastwest;whiteSpace=wrap;html=1;" parent="K6J4-owUTtvEKUNY4Ti0-217" vertex="1">
          <mxGeometry y="41" width="380" height="69" as="geometry" />
        </mxCell>
        <mxCell id="K6J4-owUTtvEKUNY4Ti0-219" value="" style="line;strokeWidth=1;fillColor=none;align=left;verticalAlign=middle;spacingTop=-1;spacingLeft=3;spacingRight=3;rotatable=0;labelPosition=right;points=[];portConstraint=eastwest;strokeColor=inherit;" parent="K6J4-owUTtvEKUNY4Ti0-217" vertex="1">
          <mxGeometry y="110" width="380" height="8" as="geometry" />
        </mxCell>
        <mxCell id="K6J4-owUTtvEKUNY4Ti0-220" value="+Direccion(String calle, String numero, String colonia, String ciudad)&lt;div&gt;+toString():string&lt;/div&gt;" style="text;strokeColor=none;fillColor=none;align=left;verticalAlign=top;spacingLeft=4;spacingRight=4;overflow=hidden;rotatable=0;points=[[0,0.5],[1,0.5]];portConstraint=eastwest;whiteSpace=wrap;html=1;" parent="K6J4-owUTtvEKUNY4Ti0-217" vertex="1">
          <mxGeometry y="118" width="380" height="92" as="geometry" />
        </mxCell>
        <mxCell id="K6J4-owUTtvEKUNY4Ti0-221" value="&amp;lt;&amp;lt;Inner Class&amp;gt;&amp;gt;" style="edgeStyle=orthogonalEdgeStyle;rounded=0;orthogonalLoop=1;jettySize=auto;html=1;entryX=0.711;entryY=1;entryDx=0;entryDy=0;entryPerimeter=0;" parent="WIyWlLk6GJQsqaUBKTNV-1" source="K6J4-owUTtvEKUNY4Ti0-205" target="K6J4-owUTtvEKUNY4Ti0-220" edge="1">
          <mxGeometry relative="1" as="geometry" />
        </mxCell>
        <mxCell id="K6J4-owUTtvEKUNY4Ti0-222" style="edgeStyle=orthogonalEdgeStyle;rounded=0;orthogonalLoop=1;jettySize=auto;html=1;endArrow=open;endFill=0;dashed=1;" parent="WIyWlLk6GJQsqaUBKTNV-1" source="K6J4-owUTtvEKUNY4Ti0-10" target="K6J4-owUTtvEKUNY4Ti0-218" edge="1">
          <mxGeometry relative="1" as="geometry">
            <Array as="points">
              <mxPoint x="-750" y="396" />
              <mxPoint x="-750" y="126" />
            </Array>
          </mxGeometry>
        </mxCell>
        <mxCell id="K6J4-owUTtvEKUNY4Ti0-227" style="edgeStyle=orthogonalEdgeStyle;rounded=0;orthogonalLoop=1;jettySize=auto;html=1;entryX=0.5;entryY=0;entryDx=0;entryDy=0;endArrow=open;endFill=0;dashed=1;" parent="WIyWlLk6GJQsqaUBKTNV-1" source="K6J4-owUTtvEKUNY4Ti0-223" target="K6J4-owUTtvEKUNY4Ti0-188" edge="1">
          <mxGeometry relative="1" as="geometry" />
        </mxCell>
        <mxCell id="K6J4-owUTtvEKUNY4Ti0-223" value="&amp;lt;&amp;lt;Entity&amp;gt;&amp;gt;&lt;div&gt;Cursos&lt;/div&gt;" style="swimlane;fontStyle=1;align=center;verticalAlign=top;childLayout=stackLayout;horizontal=1;startSize=41;horizontalStack=0;resizeParent=1;resizeParentMax=0;resizeLast=0;collapsible=1;marginBottom=0;whiteSpace=wrap;html=1;" parent="WIyWlLk6GJQsqaUBKTNV-1" vertex="1">
          <mxGeometry x="-1400" y="1100" width="540" height="370" as="geometry">
            <mxRectangle x="-1210" y="1080" width="170" height="41" as="alternateBounds" />
          </mxGeometry>
        </mxCell>
        <mxCell id="K6J4-owUTtvEKUNY4Ti0-224" value="-nombre:String&lt;div&gt;-Clave:String&lt;/div&gt;&lt;div&gt;-inscritos:ListaEstudiantes&amp;lt;Estudiantes&amp;gt;&lt;/div&gt;&lt;div&gt;-listaEspera:ListaDobleCircular&amp;lt;Estudiantes&amp;gt;&lt;/div&gt;&lt;div&gt;-rolEstudiante:ListaEnlazadaCircular&amp;lt;Estudiantes&amp;gt;&lt;/div&gt;&lt;div&gt;-:lider:Nodo&amp;lt;Estudiantes&amp;gt;&lt;/div&gt;&lt;div&gt;&lt;br&gt;&lt;/div&gt;" style="text;strokeColor=none;fillColor=none;align=left;verticalAlign=top;spacingLeft=4;spacingRight=4;overflow=hidden;rotatable=0;points=[[0,0.5],[1,0.5]];portConstraint=eastwest;whiteSpace=wrap;html=1;" parent="K6J4-owUTtvEKUNY4Ti0-223" vertex="1">
          <mxGeometry y="41" width="540" height="99" as="geometry" />
        </mxCell>
        <mxCell id="K6J4-owUTtvEKUNY4Ti0-225" value="" style="line;strokeWidth=1;fillColor=none;align=left;verticalAlign=middle;spacingTop=-1;spacingLeft=3;spacingRight=3;rotatable=0;labelPosition=right;points=[];portConstraint=eastwest;strokeColor=inherit;" parent="K6J4-owUTtvEKUNY4Ti0-223" vertex="1">
          <mxGeometry y="140" width="540" height="8" as="geometry" />
        </mxCell>
        <mxCell id="K6J4-owUTtvEKUNY4Ti0-226" value="&lt;div&gt;&lt;span style=&quot;background-color: transparent; color: light-dark(rgb(0, 0, 0), rgb(255, 255, 255));&quot;&gt;+getMatricula():String&lt;/span&gt;&lt;/div&gt;&lt;div&gt;+setClave(String clave):void&lt;/div&gt;&lt;div&gt;+getNombre():String&lt;/div&gt;&lt;div&gt;+setNombre(String nombre):void&lt;/div&gt;&lt;div&gt;&lt;div&gt;+getInscritos():&lt;span style=&quot;background-color: transparent; color: light-dark(rgb(0, 0, 0), rgb(255, 255, 255));&quot;&gt;ListaEstudiantes&amp;lt;Estudiantes&amp;gt;&lt;/span&gt;&lt;/div&gt;&lt;div&gt;+setInscritos(&lt;span style=&quot;background-color: transparent; color: light-dark(rgb(0, 0, 0), rgb(255, 255, 255));&quot;&gt;ListaEstudiantes&amp;lt;Estudiantes&amp;gt;&lt;/span&gt;&lt;span style=&quot;background-color: transparent; color: light-dark(rgb(0, 0, 0), rgb(255, 255, 255));&quot;&gt;&amp;nbsp;inscritos):void&lt;/span&gt;&lt;/div&gt;&lt;/div&gt;&lt;div&gt;&lt;div&gt;+getL&lt;span style=&quot;background-color: transparent; color: light-dark(rgb(0, 0, 0), rgb(255, 255, 255));&quot;&gt;istaEspera&lt;/span&gt;&lt;span style=&quot;background-color: transparent; color: light-dark(rgb(0, 0, 0), rgb(255, 255, 255));&quot;&gt;():&lt;/span&gt;&lt;span style=&quot;background-color: transparent; color: light-dark(rgb(0, 0, 0), rgb(255, 255, 255));&quot;&gt;ListaDobleCircular&amp;lt;Estudiantes&amp;gt;&lt;/span&gt;&lt;/div&gt;&lt;div&gt;+setL&lt;span style=&quot;background-color: transparent; color: light-dark(rgb(0, 0, 0), rgb(255, 255, 255));&quot;&gt;istaEspera&lt;/span&gt;&lt;span style=&quot;background-color: transparent; color: light-dark(rgb(0, 0, 0), rgb(255, 255, 255));&quot;&gt;(&lt;/span&gt;&lt;span style=&quot;background-color: transparent; color: light-dark(rgb(0, 0, 0), rgb(255, 255, 255));&quot;&gt;ListaDobleCircular&amp;lt;Estudiantes&amp;gt;&lt;/span&gt;&lt;span style=&quot;background-color: transparent; color: light-dark(rgb(0, 0, 0), rgb(255, 255, 255));&quot;&gt;&amp;nbsp;listaEspera):void&lt;/span&gt;&lt;/div&gt;&lt;/div&gt;&lt;div&gt;&lt;div&gt;+getR&lt;span style=&quot;background-color: transparent; color: light-dark(rgb(0, 0, 0), rgb(255, 255, 255));&quot;&gt;olEstudiante&lt;/span&gt;&lt;span style=&quot;background-color: transparent; color: light-dark(rgb(0, 0, 0), rgb(255, 255, 255));&quot;&gt;():&lt;/span&gt;&lt;span style=&quot;background-color: transparent; color: light-dark(rgb(0, 0, 0), rgb(255, 255, 255));&quot;&gt;ListaEnlazadaCircular&amp;lt;Estudiantes&amp;gt;&lt;/span&gt;&lt;/div&gt;&lt;div&gt;+setR&lt;span style=&quot;background-color: transparent; color: light-dark(rgb(0, 0, 0), rgb(255, 255, 255));&quot;&gt;olEstudiante&lt;/span&gt;&lt;span style=&quot;background-color: transparent; color: light-dark(rgb(0, 0, 0), rgb(255, 255, 255));&quot;&gt;(&lt;/span&gt;ListaEnlazadaCircular&amp;lt;Estudiantes&amp;gt;&lt;span style=&quot;background-color: transparent; color: light-dark(rgb(0, 0, 0), rgb(255, 255, 255));&quot;&gt;&amp;nbsp;r&lt;/span&gt;&lt;span style=&quot;background-color: transparent; color: light-dark(rgb(0, 0, 0), rgb(255, 255, 255));&quot;&gt;olEstudiante&lt;/span&gt;&lt;span style=&quot;background-color: transparent; color: light-dark(rgb(0, 0, 0), rgb(255, 255, 255));&quot;&gt;):void&lt;/span&gt;&lt;/div&gt;&lt;/div&gt;&lt;div&gt;+&lt;span style=&quot;background-color: transparent; color: light-dark(rgb(0, 0, 0), rgb(255, 255, 255));&quot;&gt;getLider():&lt;/span&gt;&lt;span style=&quot;background-color: transparent; color: light-dark(rgb(0, 0, 0), rgb(255, 255, 255));&quot;&gt;Nodo&amp;lt;Estudiantes&amp;gt;&lt;/span&gt;&lt;/div&gt;&lt;div&gt;&lt;span style=&quot;background-color: transparent; color: light-dark(rgb(0, 0, 0), rgb(255, 255, 255));&quot;&gt;+setLider(&lt;/span&gt;Nodo&amp;lt;Estudiantes&amp;gt;&lt;span style=&quot;background-color: transparent; color: light-dark(rgb(0, 0, 0), rgb(255, 255, 255));&quot;&gt;&amp;nbsp;lider&lt;/span&gt;&lt;span style=&quot;background-color: transparent; color: light-dark(rgb(0, 0, 0), rgb(255, 255, 255));&quot;&gt;):void&lt;/span&gt;&lt;/div&gt;&lt;div&gt;&lt;span style=&quot;background-color: transparent;&quot;&gt;+getMAX_INSCRITOS():static int&lt;/span&gt;&lt;/div&gt;" style="text;strokeColor=none;fillColor=none;align=left;verticalAlign=top;spacingLeft=4;spacingRight=4;overflow=hidden;rotatable=0;points=[[0,0.5],[1,0.5]];portConstraint=eastwest;whiteSpace=wrap;html=1;" parent="K6J4-owUTtvEKUNY4Ti0-223" vertex="1">
          <mxGeometry y="148" width="540" height="222" as="geometry" />
        </mxCell>
        <mxCell id="K6J4-owUTtvEKUNY4Ti0-229" style="edgeStyle=orthogonalEdgeStyle;rounded=0;orthogonalLoop=1;jettySize=auto;html=1;entryX=0.5;entryY=0;entryDx=0;entryDy=0;dashed=1;endArrow=open;endFill=0;" parent="WIyWlLk6GJQsqaUBKTNV-1" source="K6J4-owUTtvEKUNY4Ti0-226" target="K6J4-owUTtvEKUNY4Ti0-178" edge="1">
          <mxGeometry relative="1" as="geometry">
            <Array as="points">
              <mxPoint x="-1130" y="1510" />
              <mxPoint x="-690" y="1510" />
            </Array>
          </mxGeometry>
        </mxCell>
        <mxCell id="K6J4-owUTtvEKUNY4Ti0-230" style="edgeStyle=orthogonalEdgeStyle;rounded=0;orthogonalLoop=1;jettySize=auto;html=1;entryX=0.5;entryY=0;entryDx=0;entryDy=0;dashed=1;endArrow=open;endFill=0;" parent="WIyWlLk6GJQsqaUBKTNV-1" source="K6J4-owUTtvEKUNY4Ti0-226" target="K6J4-owUTtvEKUNY4Ti0-165" edge="1">
          <mxGeometry relative="1" as="geometry">
            <Array as="points">
              <mxPoint x="-1130" y="1510" />
              <mxPoint x="-280" y="1510" />
            </Array>
          </mxGeometry>
        </mxCell>
        <mxCell id="K6J4-owUTtvEKUNY4Ti0-231" style="edgeStyle=orthogonalEdgeStyle;rounded=0;orthogonalLoop=1;jettySize=auto;html=1;entryX=0.497;entryY=0.997;entryDx=0;entryDy=0;entryPerimeter=0;exitX=0.502;exitY=1.007;exitDx=0;exitDy=0;exitPerimeter=0;dashed=1;endArrow=open;endFill=0;" parent="WIyWlLk6GJQsqaUBKTNV-1" source="K6J4-owUTtvEKUNY4Ti0-226" target="K6J4-owUTtvEKUNY4Ti0-177" edge="1">
          <mxGeometry relative="1" as="geometry">
            <Array as="points">
              <mxPoint x="-1129" y="1510" />
              <mxPoint x="-1350" y="1510" />
              <mxPoint x="-1350" y="2250" />
              <mxPoint x="-691" y="2250" />
            </Array>
          </mxGeometry>
        </mxCell>
        <mxCell id="K6J4-owUTtvEKUNY4Ti0-233" style="edgeStyle=orthogonalEdgeStyle;rounded=0;orthogonalLoop=1;jettySize=auto;html=1;entryX=0.598;entryY=0.003;entryDx=0;entryDy=0;entryPerimeter=0;endArrow=open;endFill=0;dashed=1;" parent="WIyWlLk6GJQsqaUBKTNV-1" source="K6J4-owUTtvEKUNY4Ti0-97" target="K6J4-owUTtvEKUNY4Ti0-223" edge="1">
          <mxGeometry relative="1" as="geometry">
            <Array as="points">
              <mxPoint x="980" y="1050" />
              <mxPoint x="-1077" y="1050" />
            </Array>
          </mxGeometry>
        </mxCell>
        <mxCell id="K6J4-owUTtvEKUNY4Ti0-234" style="edgeStyle=orthogonalEdgeStyle;rounded=0;orthogonalLoop=1;jettySize=auto;html=1;entryX=0.003;entryY=0.781;entryDx=0;entryDy=0;entryPerimeter=0;endArrow=open;endFill=0;dashed=1;" parent="WIyWlLk6GJQsqaUBKTNV-1" source="K6J4-owUTtvEKUNY4Ti0-17" target="K6J4-owUTtvEKUNY4Ti0-226" edge="1">
          <mxGeometry relative="1" as="geometry">
            <Array as="points">
              <mxPoint x="2080" y="410" />
              <mxPoint x="2080" y="2280" />
              <mxPoint x="-1470" y="2280" />
              <mxPoint x="-1470" y="1421" />
            </Array>
          </mxGeometry>
        </mxCell>
        <mxCell id="OIxu4wRiIj-_0-UoY-lG-0" style="edgeStyle=orthogonalEdgeStyle;rounded=0;orthogonalLoop=1;jettySize=auto;html=1;entryX=0;entryY=0.5;entryDx=0;entryDy=0;dashed=1;endArrow=block;endFill=0;" edge="1" parent="WIyWlLk6GJQsqaUBKTNV-1" source="K6J4-owUTtvEKUNY4Ti0-235" target="K6J4-owUTtvEKUNY4Ti0-243">
          <mxGeometry relative="1" as="geometry">
            <Array as="points">
              <mxPoint x="-1690" y="800" />
            </Array>
          </mxGeometry>
        </mxCell>
        <mxCell id="K6J4-owUTtvEKUNY4Ti0-235" value="&amp;lt;&amp;lt;Entity&amp;gt;&amp;gt;&lt;div&gt;Califcicaciones&lt;/div&gt;" style="swimlane;fontStyle=1;align=center;verticalAlign=top;childLayout=stackLayout;horizontal=1;startSize=41;horizontalStack=0;resizeParent=1;resizeParentMax=0;resizeLast=0;collapsible=1;marginBottom=0;whiteSpace=wrap;html=1;" parent="WIyWlLk6GJQsqaUBKTNV-1" vertex="1">
          <mxGeometry x="-1840" y="210" width="360" height="210" as="geometry">
            <mxRectangle x="-1210" y="1080" width="170" height="41" as="alternateBounds" />
          </mxGeometry>
        </mxCell>
        <mxCell id="K6J4-owUTtvEKUNY4Ti0-236" value="-promedio:double&lt;div&gt;-estudiantes:Estudiantes&lt;br&gt;&lt;div&gt;&lt;br&gt;&lt;/div&gt;&lt;/div&gt;" style="text;strokeColor=none;fillColor=none;align=left;verticalAlign=top;spacingLeft=4;spacingRight=4;overflow=hidden;rotatable=0;points=[[0,0.5],[1,0.5]];portConstraint=eastwest;whiteSpace=wrap;html=1;" parent="K6J4-owUTtvEKUNY4Ti0-235" vertex="1">
          <mxGeometry y="41" width="360" height="39" as="geometry" />
        </mxCell>
        <mxCell id="K6J4-owUTtvEKUNY4Ti0-237" value="" style="line;strokeWidth=1;fillColor=none;align=left;verticalAlign=middle;spacingTop=-1;spacingLeft=3;spacingRight=3;rotatable=0;labelPosition=right;points=[];portConstraint=eastwest;strokeColor=inherit;" parent="K6J4-owUTtvEKUNY4Ti0-235" vertex="1">
          <mxGeometry y="80" width="360" height="8" as="geometry" />
        </mxCell>
        <mxCell id="K6J4-owUTtvEKUNY4Ti0-238" value="+Calificaciones(Estudiantes estudiante, double promedio)&lt;div&gt;+getPromedio():double&lt;/div&gt;&lt;div&gt;+getEstudiante():Estudiante&lt;/div&gt;&lt;div&gt;+compareTo(Calificaciones o):int&lt;/div&gt;" style="text;strokeColor=none;fillColor=none;align=left;verticalAlign=top;spacingLeft=4;spacingRight=4;overflow=hidden;rotatable=0;points=[[0,0.5],[1,0.5]];portConstraint=eastwest;whiteSpace=wrap;html=1;" parent="K6J4-owUTtvEKUNY4Ti0-235" vertex="1">
          <mxGeometry y="88" width="360" height="122" as="geometry" />
        </mxCell>
        <mxCell id="K6J4-owUTtvEKUNY4Ti0-243" value="comparable" style="swimlane;fontStyle=1;align=center;verticalAlign=top;childLayout=stackLayout;horizontal=1;startSize=26;horizontalStack=0;resizeParent=1;resizeParentMax=0;resizeLast=0;collapsible=1;marginBottom=0;whiteSpace=wrap;html=1;" parent="WIyWlLk6GJQsqaUBKTNV-1" vertex="1">
          <mxGeometry x="-1570" y="780" width="160" height="40" as="geometry" />
        </mxCell>
        <mxCell id="K6J4-owUTtvEKUNY4Ti0-245" value="" style="line;strokeWidth=1;fillColor=none;align=left;verticalAlign=middle;spacingTop=-1;spacingLeft=3;spacingRight=3;rotatable=0;labelPosition=right;points=[];portConstraint=eastwest;strokeColor=inherit;" parent="K6J4-owUTtvEKUNY4Ti0-243" vertex="1">
          <mxGeometry y="26" width="160" height="8" as="geometry" />
        </mxCell>
        <mxCell id="K6J4-owUTtvEKUNY4Ti0-246" value="&lt;div&gt;&lt;br&gt;&lt;/div&gt;&lt;div&gt;&lt;br&gt;&lt;/div&gt;" style="text;strokeColor=none;fillColor=none;align=left;verticalAlign=top;spacingLeft=4;spacingRight=4;overflow=hidden;rotatable=0;points=[[0,0.5],[1,0.5]];portConstraint=eastwest;whiteSpace=wrap;html=1;" parent="K6J4-owUTtvEKUNY4Ti0-243" vertex="1">
          <mxGeometry y="34" width="160" height="6" as="geometry" />
        </mxCell>
        <mxCell id="K6J4-owUTtvEKUNY4Ti0-258" value="&amp;lt;&amp;lt;Inner Class" style="edgeStyle=orthogonalEdgeStyle;rounded=0;orthogonalLoop=1;jettySize=auto;html=1;entryX=-0.001;entryY=0.139;entryDx=0;entryDy=0;entryPerimeter=0;endArrow=block;startFill=0;endFill=1;" parent="WIyWlLk6GJQsqaUBKTNV-1" source="K6J4-owUTtvEKUNY4Ti0-250" target="K6J4-owUTtvEKUNY4Ti0-254" edge="1">
          <mxGeometry relative="1" as="geometry">
            <Array as="points">
              <mxPoint x="760" y="1980" />
              <mxPoint x="760" y="1960" />
              <mxPoint x="820" y="1960" />
            </Array>
          </mxGeometry>
        </mxCell>
        <mxCell id="K6J4-owUTtvEKUNY4Ti0-250" value="&amp;lt;&amp;lt;Entity&amp;gt;&amp;gt;&lt;div&gt;Accion&lt;/div&gt;" style="swimlane;fontStyle=1;align=center;verticalAlign=top;childLayout=stackLayout;horizontal=1;startSize=41;horizontalStack=0;resizeParent=1;resizeParentMax=0;resizeLast=0;collapsible=1;marginBottom=0;whiteSpace=wrap;html=1;" parent="WIyWlLk6GJQsqaUBKTNV-1" vertex="1">
          <mxGeometry x="-50" y="1730" width="680" height="330" as="geometry">
            <mxRectangle x="-1210" y="1080" width="170" height="41" as="alternateBounds" />
          </mxGeometry>
        </mxCell>
        <mxCell id="K6J4-owUTtvEKUNY4Ti0-251" value="&lt;div&gt;-tipo Tipo;&lt;/div&gt;&lt;div&gt;&lt;span style=&quot;background-color: transparent; color: light-dark(rgb(0, 0, 0), rgb(255, 255, 255));&quot;&gt;-&lt;/span&gt;&lt;span style=&quot;background-color: transparent; color: light-dark(rgb(0, 0, 0), rgb(255, 255, 255));&quot;&gt;estudianteInvolucrado:&lt;/span&gt;&lt;span style=&quot;background-color: transparent; color: light-dark(rgb(0, 0, 0), rgb(255, 255, 255));&quot;&gt;Estudiantes&lt;/span&gt;&lt;/div&gt;&lt;div&gt;-&lt;span style=&quot;background-color: transparent; color: light-dark(rgb(0, 0, 0), rgb(255, 255, 255));&quot;&gt;cursoInvolucrado:&lt;/span&gt;&lt;span style=&quot;background-color: transparent; color: light-dark(rgb(0, 0, 0), rgb(255, 255, 255));&quot;&gt;Cursos&lt;/span&gt;&lt;/div&gt;&lt;div&gt;-&lt;span style=&quot;background-color: transparent; color: light-dark(rgb(0, 0, 0), rgb(255, 255, 255));&quot;&gt;calificacionAnterior;&lt;/span&gt;&lt;span style=&quot;background-color: transparent; color: light-dark(rgb(0, 0, 0), rgb(255, 255, 255));&quot;&gt;Double&amp;nbsp;&lt;/span&gt;&lt;/div&gt;&lt;div&gt;&lt;span style=&quot;background-color: transparent; color: light-dark(rgb(0, 0, 0), rgb(255, 255, 255));&quot;&gt;-calificacionNueva:&lt;/span&gt;&lt;span style=&quot;background-color: transparent; color: light-dark(rgb(0, 0, 0), rgb(255, 255, 255));&quot;&gt;Double&amp;nbsp;&lt;/span&gt;&lt;/div&gt;&lt;div&gt;-&lt;span style=&quot;background-color: transparent; color: light-dark(rgb(0, 0, 0), rgb(255, 255, 255));&quot;&gt;posicionCalificacion:&lt;/span&gt;&lt;span style=&quot;background-color: transparent; color: light-dark(rgb(0, 0, 0), rgb(255, 255, 255));&quot;&gt;int&amp;nbsp;&lt;/span&gt;&lt;/div&gt;" style="text;strokeColor=none;fillColor=none;align=left;verticalAlign=top;spacingLeft=4;spacingRight=4;overflow=hidden;rotatable=0;points=[[0,0.5],[1,0.5]];portConstraint=eastwest;whiteSpace=wrap;html=1;" parent="K6J4-owUTtvEKUNY4Ti0-250" vertex="1">
          <mxGeometry y="41" width="680" height="99" as="geometry" />
        </mxCell>
        <mxCell id="K6J4-owUTtvEKUNY4Ti0-252" value="" style="line;strokeWidth=1;fillColor=none;align=left;verticalAlign=middle;spacingTop=-1;spacingLeft=3;spacingRight=3;rotatable=0;labelPosition=right;points=[];portConstraint=eastwest;strokeColor=inherit;" parent="K6J4-owUTtvEKUNY4Ti0-250" vertex="1">
          <mxGeometry y="140" width="680" height="8" as="geometry" />
        </mxCell>
        <mxCell id="K6J4-owUTtvEKUNY4Ti0-253" value="&lt;div&gt;+Accion(Tipo tipo, Estudiantes estudiante, Cursos curso,&amp;nbsp;&lt;span style=&quot;background-color: transparent; color: light-dark(rgb(0, 0, 0), rgb(255, 255, 255));&quot;&gt;Double calificacionAnterior, Double calificacionNueva, int posicion)&lt;/span&gt;&lt;/div&gt;&lt;div&gt;&lt;span style=&quot;background-color: transparent; color: light-dark(rgb(0, 0, 0), rgb(255, 255, 255));&quot;&gt;+&lt;/span&gt;&lt;span style=&quot;background-color: transparent;&quot;&gt;getEstudianteInvolucrado():Estudiantes&lt;/span&gt;&lt;/div&gt;&lt;div&gt;&lt;span style=&quot;background-color: transparent;&quot;&gt;+set&lt;/span&gt;&lt;span style=&quot;background-color: transparent; color: light-dark(rgb(0, 0, 0), rgb(255, 255, 255));&quot;&gt;EstudianteInvolucrado(&lt;/span&gt;&lt;span style=&quot;background-color: transparent;&quot;&gt;Estudiantes estudianteInvolucrado&lt;/span&gt;&lt;span style=&quot;background-color: transparent; color: light-dark(rgb(0, 0, 0), rgb(255, 255, 255));&quot;&gt;):void&lt;/span&gt;&lt;/div&gt;&lt;div&gt;+getCursoInvolucrado():Cursos&lt;/div&gt;&lt;div&gt;+setCursoInvolucrado(Cursos&amp;nbsp;&lt;span style=&quot;background-color: transparent; color: light-dark(rgb(0, 0, 0), rgb(255, 255, 255));&quot;&gt;ursoInvolucrado&lt;/span&gt;&lt;span style=&quot;background-color: transparent; color: light-dark(rgb(0, 0, 0), rgb(255, 255, 255));&quot;&gt;):void&lt;/span&gt;&lt;/div&gt;&lt;div&gt;&lt;span style=&quot;background-color: transparent; color: light-dark(rgb(0, 0, 0), rgb(255, 255, 255));&quot;&gt;+getTipo():Tipo&lt;/span&gt;&lt;/div&gt;&lt;div&gt;&lt;span style=&quot;background-color: transparent; color: light-dark(rgb(0, 0, 0), rgb(255, 255, 255));&quot;&gt;+getEstudiante():Estudiante&lt;/span&gt;&lt;/div&gt;&lt;div&gt;&lt;span style=&quot;background-color: transparent; color: light-dark(rgb(0, 0, 0), rgb(255, 255, 255));&quot;&gt;+getCurso()Cursos&lt;/span&gt;&lt;/div&gt;&lt;div&gt;&lt;span style=&quot;background-color: transparent; color: light-dark(rgb(0, 0, 0), rgb(255, 255, 255));&quot;&gt;+&lt;/span&gt;&lt;span style=&quot;background-color: transparent;&quot;&gt;getCalificacionAnterior():double&lt;/span&gt;&lt;/div&gt;&lt;div&gt;&lt;span style=&quot;background-color: transparent;&quot;&gt;+getCalificacionNueva():double&lt;/span&gt;&lt;/div&gt;&lt;div&gt;&lt;span style=&quot;background-color: transparent;&quot;&gt;+getPosicionCalificacion():int&lt;/span&gt;&lt;/div&gt;" style="text;strokeColor=none;fillColor=none;align=left;verticalAlign=top;spacingLeft=4;spacingRight=4;overflow=hidden;rotatable=0;points=[[0,0.5],[1,0.5]];portConstraint=eastwest;whiteSpace=wrap;html=1;" parent="K6J4-owUTtvEKUNY4Ti0-250" vertex="1">
          <mxGeometry y="148" width="680" height="182" as="geometry" />
        </mxCell>
        <mxCell id="K6J4-owUTtvEKUNY4Ti0-254" value="&amp;lt;&amp;lt;enum&amp;gt;&amp;gt;&lt;div&gt;tipo&lt;/div&gt;" style="swimlane;fontStyle=1;align=center;verticalAlign=top;childLayout=stackLayout;horizontal=1;startSize=41;horizontalStack=0;resizeParent=1;resizeParentMax=0;resizeLast=0;collapsible=1;marginBottom=0;whiteSpace=wrap;html=1;" parent="WIyWlLk6GJQsqaUBKTNV-1" vertex="1">
          <mxGeometry x="820" y="1939" width="360" height="180" as="geometry">
            <mxRectangle x="-1210" y="1080" width="170" height="41" as="alternateBounds" />
          </mxGeometry>
        </mxCell>
        <mxCell id="K6J4-owUTtvEKUNY4Ti0-255" value="&lt;div&gt;&lt;div&gt;EGISTRO_ESTUDIANTE,&lt;/div&gt;&lt;div&gt;ELIMINAR_ESTUDIANTE,&lt;/div&gt;&lt;div&gt;INSCRIPCION,&lt;/div&gt;&lt;div&gt;BAJA_ESTUDIANTE,&lt;/div&gt;&lt;div&gt;AGREGAR_CURSO,&lt;/div&gt;&lt;div&gt;ELIMINAR_CURSO,&lt;/div&gt;&lt;div&gt;CALIFICACION_AGREGADA,&lt;/div&gt;&lt;div&gt;CALIFICACION_MODIFICADA&lt;/div&gt;&lt;/div&gt;" style="text;strokeColor=none;fillColor=none;align=left;verticalAlign=top;spacingLeft=4;spacingRight=4;overflow=hidden;rotatable=0;points=[[0,0.5],[1,0.5]];portConstraint=eastwest;whiteSpace=wrap;html=1;" parent="K6J4-owUTtvEKUNY4Ti0-254" vertex="1">
          <mxGeometry y="41" width="360" height="129" as="geometry" />
        </mxCell>
        <mxCell id="K6J4-owUTtvEKUNY4Ti0-256" value="" style="line;strokeWidth=1;fillColor=none;align=left;verticalAlign=middle;spacingTop=-1;spacingLeft=3;spacingRight=3;rotatable=0;labelPosition=right;points=[];portConstraint=eastwest;strokeColor=inherit;" parent="K6J4-owUTtvEKUNY4Ti0-254" vertex="1">
          <mxGeometry y="170" width="360" height="10" as="geometry" />
        </mxCell>
        <mxCell id="K6J4-owUTtvEKUNY4Ti0-259" style="edgeStyle=orthogonalEdgeStyle;rounded=0;orthogonalLoop=1;jettySize=auto;html=1;entryX=0.995;entryY=0.715;entryDx=0;entryDy=0;entryPerimeter=0;endArrow=open;endFill=0;dashed=1;" parent="WIyWlLk6GJQsqaUBKTNV-1" source="K6J4-owUTtvEKUNY4Ti0-250" target="K6J4-owUTtvEKUNY4Ti0-226" edge="1">
          <mxGeometry relative="1" as="geometry">
            <Array as="points">
              <mxPoint x="380" y="1590" />
              <mxPoint x="-500" y="1590" />
              <mxPoint x="-500" y="1407" />
            </Array>
          </mxGeometry>
        </mxCell>
        <mxCell id="K6J4-owUTtvEKUNY4Ti0-260" style="edgeStyle=orthogonalEdgeStyle;rounded=0;orthogonalLoop=1;jettySize=auto;html=1;entryX=0;entryY=0.459;entryDx=0;entryDy=0;entryPerimeter=0;dashed=1;endArrow=open;endFill=0;" parent="WIyWlLk6GJQsqaUBKTNV-1" source="K6J4-owUTtvEKUNY4Ti0-250" target="K6J4-owUTtvEKUNY4Ti0-208" edge="1">
          <mxGeometry relative="1" as="geometry">
            <Array as="points">
              <mxPoint x="639" y="2270" />
              <mxPoint x="-1800" y="2270" />
              <mxPoint x="-1800" y="570" />
            </Array>
          </mxGeometry>
        </mxCell>
        <mxCell id="OIxu4wRiIj-_0-UoY-lG-1" style="edgeStyle=orthogonalEdgeStyle;rounded=0;orthogonalLoop=1;jettySize=auto;html=1;entryX=0.009;entryY=0.122;entryDx=0;entryDy=0;entryPerimeter=0;dashed=1;endArrow=open;endFill=0;" edge="1" parent="WIyWlLk6GJQsqaUBKTNV-1" source="K6J4-owUTtvEKUNY4Ti0-235" target="K6J4-owUTtvEKUNY4Ti0-205">
          <mxGeometry relative="1" as="geometry" />
        </mxCell>
        <mxCell id="OIxu4wRiIj-_0-UoY-lG-2" style="edgeStyle=orthogonalEdgeStyle;rounded=0;orthogonalLoop=1;jettySize=auto;html=1;entryX=0.222;entryY=0.001;entryDx=0;entryDy=0;entryPerimeter=0;dashed=1;endArrow=open;endFill=0;" edge="1" parent="WIyWlLk6GJQsqaUBKTNV-1" source="K6J4-owUTtvEKUNY4Ti0-89" target="K6J4-owUTtvEKUNY4Ti0-250">
          <mxGeometry relative="1" as="geometry">
            <Array as="points">
              <mxPoint x="100" y="1650" />
            </Array>
          </mxGeometry>
        </mxCell>
        <mxCell id="OIxu4wRiIj-_0-UoY-lG-3" style="edgeStyle=orthogonalEdgeStyle;rounded=0;orthogonalLoop=1;jettySize=auto;html=1;entryX=-0.002;entryY=0.377;entryDx=0;entryDy=0;entryPerimeter=0;exitX=0.505;exitY=1.005;exitDx=0;exitDy=0;exitPerimeter=0;endArrow=open;endFill=0;dashed=1;" edge="1" parent="WIyWlLk6GJQsqaUBKTNV-1" source="K6J4-owUTtvEKUNY4Ti0-92" target="K6J4-owUTtvEKUNY4Ti0-255">
          <mxGeometry relative="1" as="geometry">
            <Array as="points">
              <mxPoint x="88" y="1520" />
              <mxPoint x="-80" y="1520" />
              <mxPoint x="-80" y="2120" />
              <mxPoint x="740" y="2120" />
              <mxPoint x="740" y="2029" />
            </Array>
          </mxGeometry>
        </mxCell>
        <mxCell id="OIxu4wRiIj-_0-UoY-lG-12" style="edgeStyle=orthogonalEdgeStyle;rounded=0;orthogonalLoop=1;jettySize=auto;html=1;entryX=-0.002;entryY=0.591;entryDx=0;entryDy=0;entryPerimeter=0;endArrow=open;endFill=0;dashed=1;" edge="1" parent="WIyWlLk6GJQsqaUBKTNV-1" source="K6J4-owUTtvEKUNY4Ti0-85" target="K6J4-owUTtvEKUNY4Ti0-255">
          <mxGeometry relative="1" as="geometry">
            <Array as="points">
              <mxPoint x="-313" y="1090" />
              <mxPoint x="70" y="1090" />
              <mxPoint x="70" y="1500" />
              <mxPoint x="-100" y="1500" />
              <mxPoint x="-100" y="2160" />
              <mxPoint x="790" y="2160" />
              <mxPoint x="790" y="2056" />
            </Array>
          </mxGeometry>
        </mxCell>
        <mxCell id="OIxu4wRiIj-_0-UoY-lG-13" style="edgeStyle=orthogonalEdgeStyle;rounded=0;orthogonalLoop=1;jettySize=auto;html=1;entryX=-0.003;entryY=0.221;entryDx=0;entryDy=0;entryPerimeter=0;dashed=1;endArrow=open;endFill=0;" edge="1" parent="WIyWlLk6GJQsqaUBKTNV-1" source="K6J4-owUTtvEKUNY4Ti0-81" target="K6J4-owUTtvEKUNY4Ti0-253">
          <mxGeometry relative="1" as="geometry">
            <Array as="points">
              <mxPoint x="-1430" y="820" />
              <mxPoint x="-1430" y="2260" />
              <mxPoint x="-70" y="2260" />
              <mxPoint x="-70" y="1925" />
            </Array>
          </mxGeometry>
        </mxCell>
        <mxCell id="OIxu4wRiIj-_0-UoY-lG-14" style="edgeStyle=orthogonalEdgeStyle;rounded=0;orthogonalLoop=1;jettySize=auto;html=1;entryX=0.145;entryY=1.019;entryDx=0;entryDy=0;entryPerimeter=0;dashed=1;endArrow=open;endFill=0;" edge="1" parent="WIyWlLk6GJQsqaUBKTNV-1" source="K6J4-owUTtvEKUNY4Ti0-81" target="K6J4-owUTtvEKUNY4Ti0-256">
          <mxGeometry relative="1" as="geometry">
            <Array as="points">
              <mxPoint x="-1450" y="830" />
              <mxPoint x="-1450" y="2300" />
              <mxPoint x="872" y="2300" />
            </Array>
          </mxGeometry>
        </mxCell>
        <mxCell id="OIxu4wRiIj-_0-UoY-lG-16" style="edgeStyle=orthogonalEdgeStyle;rounded=0;orthogonalLoop=1;jettySize=auto;html=1;entryX=0.879;entryY=0;entryDx=0;entryDy=0;entryPerimeter=0;dashed=1;endArrow=open;endFill=0;" edge="1" parent="WIyWlLk6GJQsqaUBKTNV-1" source="K6J4-owUTtvEKUNY4Ti0-97" target="K6J4-owUTtvEKUNY4Ti0-250">
          <mxGeometry relative="1" as="geometry">
            <Array as="points">
              <mxPoint x="640" y="890" />
              <mxPoint x="640" y="1680" />
              <mxPoint x="548" y="1680" />
            </Array>
          </mxGeometry>
        </mxCell>
        <mxCell id="OIxu4wRiIj-_0-UoY-lG-17" style="edgeStyle=orthogonalEdgeStyle;rounded=0;orthogonalLoop=1;jettySize=auto;html=1;entryX=0.028;entryY=-0.016;entryDx=0;entryDy=0;entryPerimeter=0;dashed=1;endArrow=open;endFill=0;" edge="1" parent="WIyWlLk6GJQsqaUBKTNV-1" source="K6J4-owUTtvEKUNY4Ti0-97" target="K6J4-owUTtvEKUNY4Ti0-254">
          <mxGeometry relative="1" as="geometry">
            <Array as="points">
              <mxPoint x="650" y="900" />
              <mxPoint x="650" y="1734" />
              <mxPoint x="830" y="1734" />
            </Array>
          </mxGeometry>
        </mxCell>
        <mxCell id="OIxu4wRiIj-_0-UoY-lG-19" style="edgeStyle=orthogonalEdgeStyle;rounded=0;orthogonalLoop=1;jettySize=auto;html=1;entryX=0.504;entryY=1.014;entryDx=0;entryDy=0;entryPerimeter=0;dashed=1;startArrow=open;startFill=0;endArrow=none;" edge="1" parent="WIyWlLk6GJQsqaUBKTNV-1" source="K6J4-owUTtvEKUNY4Ti0-55" target="K6J4-owUTtvEKUNY4Ti0-28">
          <mxGeometry relative="1" as="geometry" />
        </mxCell>
        <mxCell id="OIxu4wRiIj-_0-UoY-lG-20" style="edgeStyle=orthogonalEdgeStyle;rounded=0;orthogonalLoop=1;jettySize=auto;html=1;entryX=0.723;entryY=0;entryDx=0;entryDy=0;entryPerimeter=0;dashed=1;endArrow=open;endFill=0;" edge="1" parent="WIyWlLk6GJQsqaUBKTNV-1" source="K6J4-owUTtvEKUNY4Ti0-93" target="K6J4-owUTtvEKUNY4Ti0-119">
          <mxGeometry relative="1" as="geometry">
            <Array as="points">
              <mxPoint x="510" y="1060" />
              <mxPoint x="-90" y="1060" />
            </Array>
          </mxGeometry>
        </mxCell>
        <mxCell id="OIxu4wRiIj-_0-UoY-lG-23" style="edgeStyle=orthogonalEdgeStyle;rounded=0;orthogonalLoop=1;jettySize=auto;html=1;entryX=0.726;entryY=-0.002;entryDx=0;entryDy=0;entryPerimeter=0;dashed=1;endArrow=open;endFill=0;" edge="1" parent="WIyWlLk6GJQsqaUBKTNV-1" source="K6J4-owUTtvEKUNY4Ti0-93" target="K6J4-owUTtvEKUNY4Ti0-158">
          <mxGeometry relative="1" as="geometry">
            <Array as="points">
              <mxPoint x="633" y="1070" />
              <mxPoint x="490" y="1070" />
            </Array>
          </mxGeometry>
        </mxCell>
        <mxCell id="OIxu4wRiIj-_0-UoY-lG-25" style="edgeStyle=orthogonalEdgeStyle;rounded=0;orthogonalLoop=1;jettySize=auto;html=1;entryX=0.697;entryY=0.004;entryDx=0;entryDy=0;entryPerimeter=0;startArrow=none;startFill=0;dashed=1;endArrow=open;endFill=0;" edge="1" parent="WIyWlLk6GJQsqaUBKTNV-1" source="K6J4-owUTtvEKUNY4Ti0-93" target="K6J4-owUTtvEKUNY4Ti0-223">
          <mxGeometry relative="1" as="geometry">
            <Array as="points">
              <mxPoint x="633" y="1040" />
              <mxPoint x="-1024" y="1040" />
            </Array>
          </mxGeometry>
        </mxCell>
      </root>
    </mxGraphModel>
  </diagram>
</mxfile>
